<svg width="16" height="8" viewBox="0 0 16 8" fill="none" xmlns="http://www.w3.org/2000/svg">
<path d="M1 3.5C0.723858 3.5 0.5 3.72386 0.5 4C0.5 4.27614 0.723858 4.5 1 4.5L1 3.5ZM15.1722 4.35355C15.3674 4.15829 15.3674 3.84171 15.1722 3.64645L11.9902 0.464466C11.7949 0.269203 11.4783 0.269203 11.2831 0.464466C11.0878 0.659728 11.0878 0.97631 11.2831 1.17157L14.1115 4L11.2831 6.82843C11.0878 7.02369 11.0878 7.34027 11.2831 7.53553C11.4783 7.7308 11.7949 7.7308 11.9902 7.53553L15.1722 4.35355ZM1 4.5L14.8186 4.5L14.8186 3.5L1 3.5L1 4.5Z" fill="#828282"/>
</svg>
