<svg width="57" height="47" viewBox="0 0 57 47" fill="none" xmlns="http://www.w3.org/2000/svg">
<path d="M53.6174 3.49212H51.2617V1.25496C51.2617 0.795681 50.8913 0.425293 50.432 0.425293H45.4095C44.9503 0.425293 44.5799 0.795681 44.5799 1.25496V3.49212H17.0377V1.25496C17.0377 0.795681 16.6673 0.425293 16.208 0.425293H11.1855C10.7263 0.425293 10.3559 0.795681 10.3559 1.25496V3.49212H8.41503C6.3853 3.49212 4.72595 5.15146 4.72595 7.1812V27.4637C4.72595 27.923 5.09634 28.2934 5.55563 28.2934C6.01491 28.2934 6.3853 27.923 6.3853 27.4637V7.1812C6.3853 6.07003 7.28905 5.15146 8.41503 5.15146H53.6322C54.5211 5.15146 55.2471 5.87743 55.2471 6.76636V34.3233C55.2471 35.2123 54.5211 35.9382 53.6322 35.9382H51.8543V32.7825C51.8543 32.3232 51.4839 31.9528 51.0246 31.9528H42.076C41.6167 31.9528 41.2464 32.3232 41.2464 32.7825V35.9382H27.8531L31.0088 35.0789C32.6385 34.6345 34.0756 33.7011 35.1423 32.3973L40.5056 25.8785C40.6093 25.7451 40.6834 25.5821 40.6982 25.4192L41.1723 19.1966C41.2167 18.5892 40.8463 17.9818 40.2833 17.7447C40.5352 17.5965 40.713 17.3299 40.713 17.0187C40.713 16.5595 40.3426 16.1891 39.8833 16.1891H36.2387C35.7794 16.1891 35.409 16.5595 35.409 17.0187C35.409 17.478 35.7794 17.8484 36.2387 17.8484H38.9648C38.8759 17.9077 38.787 17.9818 38.7129 18.0558L35.6609 21.1078C35.0683 21.7005 34.5793 22.4412 34.0608 23.0931C33.7793 23.4487 33.8237 23.9821 34.1941 24.2636C34.5497 24.5451 35.0831 24.5006 35.3646 24.1302L36.3276 22.945L38.787 25.4044L33.9126 31.3454C33.0533 32.3825 31.9274 33.1233 30.6236 33.4788L17.4674 37.2716C16.4451 37.5976 16.9636 39.1829 17.9711 38.8569L20.8601 37.9235V44.9017H19.7045C19.2452 44.9017 18.8748 45.272 18.8748 45.7313C18.8748 46.1906 19.2452 46.561 19.7045 46.561H24.8011C25.2603 46.561 25.6307 46.1906 25.6307 45.7313C25.6307 45.272 25.2603 44.9017 24.8011 44.9017H22.5343V37.6124H53.6618C55.4693 37.6124 56.9361 36.1457 56.9361 34.3382V6.78118C56.8916 4.95886 55.4249 3.49212 53.6174 3.49212ZM46.2244 2.08464H49.5875V3.4773H46.2244V2.08464ZM12.0004 2.08464H15.3635V3.4773H12.0004V2.08464ZM39.4685 19.6115L39.1722 23.4635L37.3943 21.6856L39.4685 19.6115ZM42.8761 35.9382V33.6122H50.1653V35.9382H42.8761Z" fill="#00093C"/>
<path d="M15.6749 44.9017H4.97803V40.4718C4.97803 37.6569 5.62992 34.8567 6.85961 32.3381C7.54113 30.9602 8.96342 30.0713 10.5042 30.0713H24.5494C27.4829 30.0713 30.3423 29.0342 32.5943 27.1526C32.9498 26.8563 32.9943 26.3378 32.698 25.9822C32.4017 25.6266 31.8831 25.5822 31.5275 25.8785C29.5719 27.5082 27.0977 28.412 24.5642 28.412H18.5195C19.4529 27.4341 20.0307 26.1155 20.0307 24.6636V21.5968C22.1789 21.4486 23.8679 19.6708 23.8679 17.4929C23.8679 15.2261 22.0159 13.3741 19.7492 13.3741C18.3565 13.3445 17.0379 13.6705 16.0749 14.7224C15.6008 15.2409 14.9193 15.5372 14.223 15.5372H11.9265C10.0153 15.5372 8.4597 17.0929 8.4597 19.0041V25.2562C8.4597 25.9674 8.62267 26.6637 9.05232 27.2415C9.24492 27.5082 9.48197 27.7304 9.74865 27.9082C10.045 28.1008 10.4598 28.1749 10.6968 28.412C8.4597 28.3675 6.34107 29.5972 5.36324 31.6121C4.01502 34.3678 3.30387 37.4198 3.30387 40.4867V44.9165H0.829673C0.37039 44.9165 0 45.2869 0 45.7462C0 46.2055 0.37039 46.5759 0.829673 46.5759H15.6749C16.1342 46.5759 16.5046 46.2055 16.5046 45.7462C16.5194 45.2721 16.1342 44.9017 15.6749 44.9017ZM14.3711 28.3823C13.9118 28.3527 13.4525 28.2342 13.0377 28.0416C13.2303 27.9379 13.4229 27.8193 13.5859 27.686C14.2822 27.1082 14.6674 26.2637 14.6674 25.3007V21.5968H18.3565V24.6488C18.3565 26.7082 16.6823 28.3971 14.6082 28.3971C14.5193 28.3971 14.4452 28.3971 14.3711 28.3823ZM10.1339 25.2414V18.9892C10.1339 17.9966 10.9487 17.1817 11.9414 17.1817H14.223C15.3934 17.1817 16.5046 16.6928 17.3046 15.8335C17.9565 15.1224 18.8454 14.989 19.764 15.0187C21.1122 15.0187 22.2085 16.115 22.2085 17.4632C22.2085 18.8115 21.1122 19.9078 19.764 19.9078H13.8377C13.3785 19.9078 13.0081 20.2782 13.0081 20.7375V25.2859C13.0081 26.2637 12.1488 26.8711 11.2154 26.6933C10.4746 26.5748 10.1339 25.9674 10.1339 25.2414Z" fill="#00093C"/>
<path d="M28.5346 13.152H33.0681C33.5274 13.152 33.8978 12.7816 33.8978 12.3223V9.25545C33.8978 8.79617 33.5274 8.42578 33.0681 8.42578H28.5346C28.0753 8.42578 27.7049 8.79617 27.7049 9.25545V12.3223C27.6901 12.7816 28.0605 13.152 28.5346 13.152ZM29.3642 10.0851H32.2385V11.4778H29.3642V10.0851Z" fill="#00093C"/>
<path d="M27.6902 18.5299C27.6902 18.9892 28.0606 19.3596 28.5199 19.3596H33.0534C33.5127 19.3596 33.8831 18.9892 33.8831 18.5299V15.4631C33.8831 15.0038 33.5127 14.6334 33.0534 14.6334H28.5199C28.0606 14.6334 27.6902 15.0038 27.6902 15.4631V18.5299ZM29.3643 16.3076H32.2386V17.7002H29.3643V16.3076Z" fill="#00093C"/>
<path d="M36.2093 11.611H50.9953C51.4545 11.611 51.8249 11.2406 51.8249 10.7813C51.8249 10.322 51.4545 9.95166 50.9953 9.95166H36.2093C35.75 9.95166 35.3796 10.322 35.3796 10.7813C35.3796 11.2406 35.75 11.611 36.2093 11.611Z" fill="#00093C"/>
</svg>
