<svg width="230" height="230" viewBox="0 0 230 230" fill="none" xmlns="http://www.w3.org/2000/svg">
<path d="M226.71 58.8085L226.691 58.8261L226.672 58.8447L177.056 108.461C173.521 111.996 173.521 118.22 177.056 121.755L226.672 171.372C229.426 174.126 229.426 179.083 226.672 181.838L181.598 226.912C178.844 229.666 173.887 229.666 171.133 226.912L121.516 177.295C117.981 173.76 111.757 173.76 108.222 177.295L58.6054 226.912C55.8512 229.666 50.8939 229.666 48.1397 226.912L3.06563 181.838C0.311455 179.083 0.311455 174.126 3.06563 171.372L52.682 121.755C56.2172 118.22 56.2172 111.996 52.682 108.461L3.06563 58.8447C0.311455 56.0906 0.311456 51.1331 3.06563 48.3789L48.1397 3.30489C50.8939 0.550713 55.8512 0.550713 58.6054 3.30489L108.222 52.9213C111.757 56.4565 117.981 56.4565 121.516 52.9213L171.133 3.30489C173.887 0.550713 178.844 0.550713 181.598 3.30489L226.672 48.3789C229.798 51.5044 229.741 56.0808 226.71 58.8085Z" fill="white" stroke="url(#paint0_linear_64_4046)" stroke-width="2"/>
<defs>
<linearGradient id="paint0_linear_64_4046" x1="0" y1="115.108" x2="230" y2="115.108" gradientUnits="userSpaceOnUse">
<stop stop-color="#F7941D"/>
<stop offset="1" stop-color="#27AAE1"/>
</linearGradient>
</defs>
</svg>
