<svg width="117" height="106" viewBox="0 0 117 106" fill="none" xmlns="http://www.w3.org/2000/svg">
<path d="M44.849 51.5125L43.82 49.7975L40.6959 51.672L43.9546 53.3014L44.849 51.5125ZM51.643 57.3605L49.9607 58.442L49.9697 58.4561L49.9789 58.4699L51.643 57.3605ZM50.869 75.5065L52.453 76.7275L52.4591 76.7197L52.4651 76.7117L50.869 75.5065ZM41.925 81.9565L42.6486 83.8211L42.6606 83.8164L42.6726 83.8116L41.925 81.9565ZM15.265 81.9565L14.5078 83.8076L14.5246 83.8145L14.5415 83.8211L15.265 81.9565ZM6.40703 75.5065L4.79526 76.6907L4.80892 76.7093L4.82301 76.7275L6.40703 75.5065ZM5.63303 57.3605L3.96892 56.2511L3.95968 56.265L3.95067 56.279L5.63303 57.3605ZM12.427 51.5125L13.3354 53.2943L16.5092 51.6763L13.4752 49.8092L12.427 51.5125ZM7.26703 46.3525L5.52765 47.3397L5.5335 47.35L5.53947 47.3603L7.26703 46.3525ZM16.555 24.0785L17.2873 25.9397L17.3004 25.9345L17.3135 25.9291L16.555 24.0785ZM40.721 24.0785L39.9626 25.9291L39.9807 25.9366L39.999 25.9437L40.721 24.0785ZM48.977 30.0125L50.5728 28.8069L50.5728 28.8069L48.977 30.0125ZM50.095 46.3525L51.8226 47.3603L51.8286 47.35L51.8344 47.3397L50.095 46.3525ZM21.801 34.2265L23.0438 35.7935L23.0504 35.7883L21.801 34.2265ZM21.801 45.1485L20.5582 46.7155H20.5582L21.801 45.1485ZM35.475 34.2265L34.2256 35.7883L34.2418 35.8012L34.2582 35.8137L35.475 34.2265ZM36.851 71.6365L38.0726 73.2201L38.0789 73.2152L36.851 71.6365ZM36.851 58.9945L35.6294 60.5781L35.6402 60.5864L35.651 60.5945L36.851 58.9945ZM20.425 58.9945L19.2034 57.411L20.425 58.9945ZM20.425 71.6365L19.2034 73.2201H19.2034L20.425 71.6365ZM43.9546 53.3014C46.668 54.6581 48.637 56.383 49.9607 58.442L53.3254 56.279C51.5531 53.5221 48.9927 51.3483 45.7435 49.7237L43.9546 53.3014ZM49.9789 58.4699C51.3456 60.5199 52.051 62.9071 52.051 65.7025H56.051C56.051 62.1913 55.1511 59.0171 53.3071 56.2511L49.9789 58.4699ZM52.051 65.7025C52.051 69.0214 51.1162 71.8602 49.2729 74.3013L52.4651 76.7117C54.8645 73.5342 56.051 69.8369 56.051 65.7025H52.051ZM49.285 74.2855C47.4195 76.7057 44.7522 78.6609 41.1775 80.1015L42.6726 83.8116C46.7805 82.1561 50.0759 79.8114 52.453 76.7275L49.285 74.2855ZM41.2015 80.092C37.6362 81.4755 33.4467 82.1925 28.595 82.1925V86.1925C33.834 86.1925 38.5312 85.4189 42.6486 83.8211L41.2015 80.092ZM28.595 82.1925C23.7433 82.1925 19.5538 81.4755 15.9886 80.092L14.5415 83.8211C18.6589 85.4189 23.356 86.1925 28.595 86.1925V82.1925ZM16.0223 80.1054C12.5065 78.6672 9.86183 76.7125 7.99105 74.2855L4.82301 76.7275C7.19489 79.8046 10.4555 82.1499 14.5078 83.8076L16.0223 80.1054ZM8.01879 74.3224C6.22488 71.8807 5.31103 69.0344 5.31103 65.7025H1.31103C1.31103 69.824 2.46117 73.5137 4.79526 76.6907L8.01879 74.3224ZM5.31103 65.7025C5.31103 62.8923 5.99558 60.4951 7.31538 58.442L3.95067 56.279C2.17448 59.042 1.31103 62.2061 1.31103 65.7025H5.31103ZM7.29713 58.4699C8.68802 56.3836 10.6752 54.6505 13.3354 53.2943L11.5187 49.7307C8.33087 51.3559 5.7887 53.5215 3.96892 56.2511L7.29713 58.4699ZM13.4752 49.8092C11.4912 48.5883 10.0168 47.0972 8.99458 45.3448L5.53947 47.3603C6.92521 49.7358 8.89086 51.6848 11.3788 53.2158L13.4752 49.8092ZM9.0064 45.3653C7.99066 43.5757 7.46103 41.5142 7.46103 39.1285H3.46103C3.46103 42.1321 4.13539 44.8867 5.52765 47.3397L9.0064 45.3653ZM7.46103 39.1285C7.46103 36.0287 8.3156 33.4221 9.98076 31.2182L6.78929 28.8069C4.55579 31.763 3.46103 35.2337 3.46103 39.1285H7.46103ZM9.98076 31.2182C11.6741 28.9769 14.0761 27.2031 17.2873 25.9397L15.8228 22.2174C12.0393 23.706 8.99457 25.8881 6.78929 28.8069L9.98076 31.2182ZM17.3135 25.9291C20.5274 24.6119 24.2753 23.9285 28.595 23.9285V19.9285C23.856 19.9285 19.5773 20.6784 15.7966 22.2279L17.3135 25.9291ZM28.595 23.9285C32.9757 23.9285 36.7514 24.6131 39.9626 25.9291L41.4795 22.2279C37.696 20.6773 33.3877 19.9285 28.595 19.9285V23.9285ZM39.999 25.9437C43.2696 27.2097 45.6936 28.9845 47.3813 31.2182L50.5728 28.8069C48.3618 25.8805 45.2818 23.6994 41.443 22.2134L39.999 25.9437ZM47.3813 31.2182C49.0465 33.4221 49.901 36.0287 49.901 39.1285H53.901C53.901 35.2337 52.8063 31.763 50.5728 28.8069L47.3813 31.2182ZM49.901 39.1285C49.901 41.5142 49.3714 43.5757 48.3557 45.3653L51.8344 47.3397C53.2267 44.8867 53.901 42.1321 53.901 39.1285H49.901ZM48.3675 45.3448C47.3526 47.0846 45.8597 48.5737 43.82 49.7975L45.878 53.2275C48.425 51.6993 50.4295 49.7484 51.8226 47.3603L48.3675 45.3448ZM28.595 30.1625C25.4587 30.1625 22.7142 30.9347 20.5516 32.6648L23.0504 35.7883C24.3278 34.7663 26.1127 34.1625 28.595 34.1625V30.1625ZM20.5582 32.6595C18.3614 34.4018 17.307 36.8443 17.307 39.7305H21.307C21.307 37.9154 21.9153 36.6885 23.0438 35.7935L20.5582 32.6595ZM17.307 39.7305C17.307 42.5778 18.3746 44.9837 20.5582 46.7155L23.0438 43.5815C21.9021 42.676 21.307 41.4699 21.307 39.7305H17.307ZM20.5582 46.7155C22.6808 48.3989 25.4347 49.1265 28.595 49.1265V45.1265C26.022 45.1265 24.2466 44.5355 23.0438 43.5815L20.5582 46.7155ZM28.595 49.1265C31.7599 49.1265 34.5248 48.3972 36.6919 46.7357L34.2582 43.5613C32.9852 44.5372 31.1635 45.1265 28.595 45.1265V49.1265ZM36.6919 46.7357C38.938 45.0137 40.055 42.6039 40.055 39.7305H36.055C36.055 41.4438 35.4521 42.646 34.2582 43.5613L36.6919 46.7357ZM40.055 39.7305C40.055 36.8185 38.9519 34.3719 36.6919 32.6393L34.2582 35.8137C35.4382 36.7184 36.055 37.9412 36.055 39.7305H40.055ZM36.7244 32.6648C34.5551 30.9294 31.7776 30.1625 28.595 30.1625V34.1625C31.1457 34.1625 32.9549 34.7717 34.2256 35.7883L36.7244 32.6648ZM28.595 75.9585C32.3691 75.9585 35.6044 75.1241 38.0726 73.2201L35.6294 70.053C34.0843 71.2449 31.8156 71.9585 28.595 71.9585V75.9585ZM38.0789 73.2152C40.635 71.2272 41.947 68.5208 41.947 65.2725H37.947C37.947 67.2989 37.1951 68.8352 35.6231 70.0578L38.0789 73.2152ZM41.947 65.2725C41.947 62.0221 40.6317 59.33 38.051 57.3945L35.651 60.5945C37.1984 61.755 37.947 63.2482 37.947 65.2725H41.947ZM38.0726 57.411C35.6044 55.5069 32.3691 54.6725 28.595 54.6725V58.6725C31.8156 58.6725 34.0843 59.3861 35.6294 60.5781L38.0726 57.411ZM28.595 54.6725C24.8694 54.6725 21.6665 55.5109 19.2034 57.411L21.6466 60.5781C23.1969 59.3822 25.4407 58.6725 28.595 58.6725V54.6725ZM19.2034 57.411C16.6831 59.3552 15.415 62.0446 15.415 65.2725H19.415C19.415 63.2258 20.1536 61.7298 21.6466 60.5781L19.2034 57.411ZM15.415 65.2725C15.415 68.5417 16.671 71.2665 19.2034 73.2201L21.6466 70.053C20.1658 68.9106 19.415 67.3927 19.415 65.2725H15.415ZM19.2034 73.2201C21.6665 75.1202 24.8694 75.9585 28.595 75.9585V71.9585C25.4407 71.9585 23.1969 71.2489 21.6466 70.053L19.2034 73.2201ZM113.576 71.8085H115.576V69.8085H113.576V71.8085ZM113.576 83.1605V85.1605H115.576V83.1605H113.576ZM68.0825 83.1605H66.0825V85.1605H68.0825V83.1605ZM68.0825 74.1305L66.7092 72.6765L66.0825 73.2684V74.1305H68.0825ZM91.3025 52.2005L92.6757 53.6546L92.6826 53.648L91.3025 52.2005ZM96.2905 46.1805L98.0669 47.0994L98.0732 47.0872L98.0793 47.0749L96.2905 46.1805ZM95.0865 35.6025L93.817 37.148L93.8469 37.1725L93.8777 37.1959L95.0865 35.6025ZM80.8105 35.1725L81.6455 36.9899L81.6655 36.9807L81.6854 36.971L80.8105 35.1725ZM75.4785 39.6445L74.3955 41.326L75.998 42.3581L77.1059 40.807L75.4785 39.6445ZM65.3305 33.1085L63.6706 31.9928L62.5328 33.6856L64.2475 34.79L65.3305 33.1085ZM75.0485 24.9385L75.9025 26.747L75.9127 26.7422L75.9228 26.7373L75.0485 24.9385ZM100.934 24.1645L100.116 25.9895L100.135 25.998L100.154 26.006L100.934 24.1645ZM108.76 30.3565L107.107 31.4821L107.121 31.5024L107.135 31.5223L108.76 30.3565ZM109.534 48.9325L111.338 49.798L109.534 48.9325ZM101.536 58.7365L100.176 57.2702L100.17 57.2762L100.163 57.2822L101.536 58.7365ZM87.6905 71.8085L86.3175 70.3542L82.6587 73.8085H87.6905V71.8085ZM111.576 71.8085V83.1605H115.576V71.8085H111.576ZM113.576 81.1605H68.0825V85.1605H113.576V81.1605ZM70.0825 83.1605V74.1305H66.0825V83.1605H70.0825ZM69.4557 75.5845L92.6757 53.6545L89.9292 50.7465L66.7092 72.6765L69.4557 75.5845ZM92.6826 53.648C95.1995 51.2482 97.0534 49.0588 98.0669 47.0994L94.514 45.2617C93.8075 46.6276 92.3361 48.4515 89.9223 50.753L92.6826 53.648ZM98.0793 47.0749C99.0564 45.1208 99.5805 43.1249 99.5805 41.1065H95.5805C95.5805 42.4134 95.2445 43.8003 94.5016 45.2861L98.0793 47.0749ZM99.5805 41.1065C99.5805 38.1822 98.5374 35.7101 96.2952 34.0091L93.8777 37.1959C94.9608 38.0176 95.5805 39.2149 95.5805 41.1065H99.5805ZM96.3559 34.0571C94.2486 32.326 91.3354 31.6245 87.9485 31.6245V35.6245C90.8682 35.6245 92.7137 36.2417 93.817 37.148L96.3559 34.0571ZM87.9485 31.6245C85.0441 31.6245 82.3602 32.1945 79.9355 33.3741L81.6854 36.971C83.5034 36.0865 85.5782 35.6245 87.9485 35.6245V31.6245ZM79.9755 33.3552C77.5194 34.4836 75.4751 36.2083 73.851 38.482L77.1059 40.807C78.3485 39.0674 79.8588 37.8108 81.6455 36.9899L79.9755 33.3552ZM76.5614 37.9631L66.4134 31.4271L64.2475 34.79L74.3955 41.326L76.5614 37.9631ZM66.9904 34.2242C69.1231 31.0511 72.0725 28.5556 75.9025 26.747L74.1945 23.13C69.7684 25.2201 66.2391 28.1713 63.6706 31.9928L66.9904 34.2242ZM75.9228 26.7373C79.7376 24.8829 84.1605 23.9285 89.2385 23.9285V19.9285C83.6524 19.9285 78.6153 20.9809 74.1741 23.1398L75.9228 26.7373ZM89.2385 23.9285C93.491 23.9285 97.0998 24.6373 100.116 25.9895L101.753 22.3395C98.1184 20.7104 93.9299 19.9285 89.2385 19.9285V23.9285ZM100.154 26.006C103.229 27.3091 105.515 29.1441 107.107 31.4821L110.414 29.2309C108.336 26.1796 105.405 23.8866 101.715 22.323L100.154 26.006ZM107.135 31.5223C108.756 33.7818 109.598 36.4874 109.598 39.7305H113.598C113.598 35.7497 112.549 32.2059 110.386 29.1907L107.135 31.5223ZM109.598 39.7305C109.598 42.7075 108.974 45.4781 107.731 48.0671L111.338 49.798C112.847 46.6536 113.598 43.2895 113.598 39.7305H109.598ZM107.731 48.0671C106.514 50.6029 104.058 53.6694 100.176 57.2702L102.897 60.2029C106.926 56.465 109.803 52.9954 111.338 49.798L107.731 48.0671ZM100.163 57.2822L86.3175 70.3542L89.0634 73.2628L102.909 60.1908L100.163 57.2822ZM87.6905 73.8085H113.576V69.8085H87.6905V73.8085Z" fill="url(#paint0_linear_64_4119)"/>
<defs>
<linearGradient id="paint0_linear_64_4119" x1="0.301025" y1="52.6605" x2="116.301" y2="52.6605" gradientUnits="userSpaceOnUse">
<stop stop-color="#F7941D"/>
<stop offset="1" stop-color="#27AAE1"/>
</linearGradient>
</defs>
</svg>
