<svg width="131" height="130" viewBox="0 0 131 130" fill="none" xmlns="http://www.w3.org/2000/svg">
<path d="M127.996 32.8195L127.977 32.837L127.958 32.8556L99.8822 60.9317C97.7122 63.1017 97.7122 66.8983 99.8822 69.0683L127.958 97.1444C129.347 98.5333 129.347 101.064 127.958 102.453L102.453 127.958C101.064 129.347 98.5333 129.347 97.1444 127.958L69.0683 99.8823C66.8983 97.7123 63.1017 97.7123 60.9317 99.8823L32.8556 127.958C31.4667 129.347 28.9363 129.347 27.5474 127.958L2.04171 102.453C0.652764 101.064 0.652764 98.5333 2.04171 97.1444L30.1177 69.0683C32.2877 66.8983 32.2877 63.1017 30.1177 60.9317L2.04171 32.8556C0.652764 31.4667 0.652764 28.9363 2.04171 27.5474L27.5474 2.04171C28.9363 0.652764 31.4667 0.652764 32.8556 2.04171L60.9317 30.1178C63.1017 32.2877 66.8983 32.2877 69.0683 30.1178L97.1444 2.04171C98.5333 0.652764 101.064 0.652764 102.453 2.04171L127.958 27.5474C129.567 29.1559 129.51 31.4569 127.996 32.8195Z" stroke="url(#paint0_linear_9241_3592)" stroke-width="2"/>
<defs>
<linearGradient id="paint0_linear_9241_3592" x1="0" y1="65" x2="130.148" y2="65" gradientUnits="userSpaceOnUse">
<stop stop-color="#F7941D"/>
<stop offset="1" stop-color="#27AAE1"/>
</linearGradient>
</defs>
</svg>
