<svg width="33" height="33" viewBox="0 0 33 33" fill="none" xmlns="http://www.w3.org/2000/svg">
<path d="M32.4726 6.77396L26.0355 0.336827C25.5864 -0.112276 24.788 -0.112276 24.3389 0.336827L17.253 7.42267C16.8039 7.87177 16.0055 7.87177 15.5564 7.42267L8.47057 0.336827C8.02147 -0.112276 7.22307 -0.112276 6.77396 0.336827L0.336827 6.77396C-0.112276 7.22307 -0.112276 8.02147 0.336827 8.47058L7.42266 15.5564C7.87176 16.0055 7.87176 16.8039 7.42266 17.253L0.336827 24.3389C-0.112276 24.788 -0.112276 25.5864 0.336827 26.0355L6.77396 32.4726C7.22307 32.9217 8.02147 32.9217 8.47057 32.4726L15.5564 25.3868C16.0055 24.9377 16.8039 24.9377 17.253 25.3868L24.3389 32.4726C24.788 32.9217 25.5864 32.9217 26.0355 32.4726L32.4726 26.0355C32.9217 25.5864 32.9217 24.788 32.4726 24.3389L25.3868 17.253C24.9377 16.8039 24.9377 16.0055 25.3868 15.5564L32.4726 8.47058C32.9716 8.02147 32.9716 7.27297 32.4726 6.77396Z" fill="#00093C"/>
</svg>
