<svg width="24" height="24" viewBox="0 0 24 24" fill="none" xmlns="http://www.w3.org/2000/svg">
<path d="M23.625 12C23.625 14.875 22.6875 17.4062 20.8125 19.5938C18.9375 21.75 16.6094 23.0469 13.8281 23.4844V15.375H16.5469L17.0625 12H13.8281V9.79688C13.8281 8.60938 14.4531 8.01562 15.7031 8.01562H17.1562V5.15625C16.2812 5 15.4219 4.92188 14.5781 4.92188C13.6719 4.92188 12.8906 5.09375 12.2344 5.4375C11.6094 5.78125 11.1094 6.29687 10.7344 6.98438C10.3594 7.67188 10.1719 8.48438 10.1719 9.42188V12H7.21875V15.375H10.1719V23.4844C7.39062 23.0469 5.0625 21.75 3.1875 19.5938C1.3125 17.4062 0.375 14.875 0.375 12C0.375 8.78125 1.5 6.04688 3.75 3.79688C6.03125 1.51562 8.78125 0.375 12 0.375C15.2188 0.375 17.9531 1.51562 20.2031 3.79688C22.4844 6.04688 23.625 8.78125 23.625 12Z" fill="url(#paint0_linear_88_6244)"/>
<defs>
<linearGradient id="paint0_linear_88_6244" x1="0" y1="12" x2="24" y2="12" gradientUnits="userSpaceOnUse">
<stop stop-color="#F7941D"/>
<stop offset="1" stop-color="#27AAE1"/>
</linearGradient>
</defs>
</svg>
