<svg width="27" height="16" viewBox="0 0 27 16" fill="none" xmlns="http://www.w3.org/2000/svg">
<path d="M25.5469 1.53125C25.4531 2 25.0781 2.76562 24.4219 3.82812C23.7969 4.89062 23.2188 5.82812 22.6875 6.64062C22.1562 7.42188 21.875 7.82812 21.8438 7.85938C21.6562 8.14062 21.5625 8.34375 21.5625 8.46875C21.5625 8.59375 21.6562 8.8125 21.8438 9.125C21.8438 9.125 21.9375 9.23438 22.125 9.45312C22.3438 9.67188 22.5938 9.92188 22.875 10.2031C23.1562 10.4844 23.4688 10.8125 23.8125 11.1875C24.1562 11.5625 24.4688 11.9375 24.75 12.3125C25.0625 12.6562 25.3281 13.0156 25.5469 13.3906C25.7969 13.7656 25.9688 14.0781 26.0625 14.3281C26.2812 15.1094 25.9688 15.5 25.125 15.5H22.3594C22.1406 15.5 21.9531 15.4688 21.7969 15.4062C21.6406 15.3438 21.4688 15.2344 21.2812 15.0781C21.0938 14.9219 20.9219 14.75 20.7656 14.5625C20.6094 14.375 20.375 14.1094 20.0625 13.7656C19.75 13.4219 19.4375 13.0938 19.125 12.7812C17.875 11.5938 16.9531 11 16.3594 11C15.9844 11 15.7656 11.1094 15.7031 11.3281C15.6406 11.5469 15.6094 12.1719 15.6094 13.2031C15.6406 13.7031 15.6562 14.1094 15.6562 14.4219C15.6562 14.7969 15.5312 15.0781 15.2812 15.2656C15.0312 15.4219 14.4844 15.5 13.6406 15.5C12.1719 15.5 10.6875 15.0625 9.1875 14.1875C7.6875 13.3125 6.375 12.0625 5.25 10.4375C4.1875 9 3.29688 7.57812 2.57812 6.17188C1.89062 4.73438 1.4375 3.64062 1.21875 2.89062C1 2.14062 0.890625 1.60938 0.890625 1.29688C0.890625 0.765625 1.20312 0.5 1.82812 0.5H4.59375C4.9375 0.5 5.1875 0.578125 5.34375 0.734375C5.53125 0.890625 5.6875 1.17187 5.8125 1.57812C6.46875 3.48438 7.26562 5.1875 8.20312 6.6875C9.17188 8.1875 9.90625 8.9375 10.4062 8.9375C10.5938 8.9375 10.7188 8.875 10.7812 8.75C10.875 8.59375 10.9219 8.3125 10.9219 7.90625V3.82812C10.8906 3.39062 10.8125 3.01562 10.6875 2.70312C10.5625 2.39062 10.4375 2.17188 10.3125 2.04688C10.1875 1.89063 10.0625 1.73437 9.9375 1.57812C9.84375 1.42188 9.79688 1.28125 9.79688 1.15625C9.79688 1.03125 9.82812 0.921875 9.89062 0.828125C9.95312 0.734375 10.0312 0.65625 10.125 0.59375C10.25 0.53125 10.375 0.5 10.5 0.5H14.8594C15.3594 0.5 15.6094 0.84375 15.6094 1.53125V6.96875C15.6094 7.5 15.75 7.76562 16.0312 7.76562C16.3438 7.76562 16.7812 7.48438 17.3438 6.92188C17.9375 6.26562 18.5156 5.46875 19.0781 4.53125C19.6406 3.59375 20.0625 2.8125 20.3438 2.1875L20.7656 1.29688C20.9844 0.765625 21.375 0.5 21.9375 0.5H24.7031C25.4531 0.5 25.7344 0.84375 25.5469 1.53125Z" fill="url(#paint0_linear_88_6241)"/>
<defs>
<linearGradient id="paint0_linear_88_6241" x1="0" y1="8" x2="27" y2="8" gradientUnits="userSpaceOnUse">
<stop stop-color="#F7941D"/>
<stop offset="1" stop-color="#27AAE1"/>
</linearGradient>
</defs>
</svg>
