<svg width="27" height="18" viewBox="0 0 27 18" fill="none" xmlns="http://www.w3.org/2000/svg">
<path d="M25.7812 2.8125C25.875 3.1875 25.9531 3.65625 26.0156 4.21875C26.1094 4.78125 26.1719 5.34375 26.2031 5.90625C26.2344 6.4375 26.25 6.9375 26.25 7.40625C26.2812 7.875 26.2969 8.26562 26.2969 8.57812V9C26.2969 11.8125 26.125 13.8906 25.7812 15.2344C25.625 15.7656 25.3438 16.2344 24.9375 16.6406C24.5312 17.0469 24.0469 17.3281 23.4844 17.4844C22.8906 17.6406 21.7656 17.7656 20.1094 17.8594C18.4531 17.9219 16.9375 17.9688 15.5625 18H13.5C8.15625 18 4.82812 17.8281 3.51562 17.4844C2.29688 17.1406 1.53125 16.3906 1.21875 15.2344C1.0625 14.6406 0.9375 13.8281 0.84375 12.7969C0.78125 11.7344 0.734375 10.8438 0.703125 10.125V9C0.703125 6.21875 0.875 4.15625 1.21875 2.8125C1.375 2.25 1.65625 1.76563 2.0625 1.35938C2.46875 0.953125 2.95312 0.671875 3.51562 0.515625C4.10938 0.359375 5.23438 0.25 6.89062 0.1875C8.54688 0.09375 10.0625 0.03125 11.4375 0H13.5C18.8438 0 22.1719 0.171875 23.4844 0.515625C24.0469 0.671875 24.5312 0.953125 24.9375 1.35938C25.3438 1.76563 25.625 2.25 25.7812 2.8125ZM10.875 12.8438L17.5781 9L10.875 5.20312V12.8438Z" fill="url(#paint0_linear_88_6243)"/>
<defs>
<linearGradient id="paint0_linear_88_6243" x1="0" y1="9" x2="27" y2="9" gradientUnits="userSpaceOnUse">
<stop stop-color="#F7941D"/>
<stop offset="1" stop-color="#27AAE1"/>
</linearGradient>
</defs>
</svg>
