<svg width="201" height="105" viewBox="0 0 201 105" fill="none" xmlns="http://www.w3.org/2000/svg">
<path d="M44.548 51.352L43.519 49.637L40.3949 51.5115L43.6536 53.1409L44.548 51.352ZM51.342 57.2L49.6596 58.2815L49.6687 58.2955L49.6779 58.3094L51.342 57.2ZM50.568 75.346L52.152 76.567L52.1581 76.5591L52.1641 76.5512L50.568 75.346ZM41.624 81.796L42.3476 83.6605L42.3596 83.6559L42.3716 83.651L41.624 81.796ZM14.964 81.796L14.2067 83.6471L14.2235 83.654L14.2405 83.6605L14.964 81.796ZM6.106 75.346L4.49424 76.5302L4.5079 76.5487L4.52198 76.567L6.106 75.346ZM5.332 57.2L3.6679 56.0906L3.65866 56.1045L3.64964 56.1185L5.332 57.2ZM12.126 51.352L13.0344 53.1338L16.2082 51.5158L13.1742 49.6487L12.126 51.352ZM6.966 46.192L5.22663 47.1792L5.23247 47.1895L5.23844 47.1997L6.966 46.192ZM16.254 23.918L16.9862 25.7791L16.9994 25.774L17.0124 25.7686L16.254 23.918ZM40.42 23.918L39.6616 25.7686L39.6797 25.776L39.698 25.7831L40.42 23.918ZM48.676 29.852L50.2717 28.6463L50.2717 28.6463L48.676 29.852ZM49.794 46.192L51.5216 47.1997L51.5275 47.1895L51.5334 47.1792L49.794 46.192ZM21.5 34.066L22.7428 35.633L22.7494 35.6277L21.5 34.066ZM21.5 44.988L20.2572 46.555H20.2572L21.5 44.988ZM35.174 34.066L33.9246 35.6277L33.9407 35.6406L33.9571 35.6532L35.174 34.066ZM36.55 71.476L37.7716 73.0596L37.7779 73.0547L36.55 71.476ZM36.55 58.834L35.3284 60.4176L35.3391 60.4259L35.35 60.434L36.55 58.834ZM20.124 58.834L18.9024 57.2504L20.124 58.834ZM20.124 71.476L18.9024 73.0596H18.9024L20.124 71.476ZM43.6536 53.1409C46.367 54.4976 48.336 56.2224 49.6596 58.2815L53.0244 56.1185C51.252 53.3616 48.6917 51.1878 45.4424 49.5631L43.6536 53.1409ZM49.6779 58.3094C51.0446 60.3594 51.75 62.7466 51.75 65.542H55.75C55.75 62.0308 54.8501 58.8566 53.0061 56.0906L49.6779 58.3094ZM51.75 65.542C51.75 68.8609 50.8152 71.6997 48.9719 74.1408L52.1641 76.5512C54.5635 73.3736 55.75 69.6764 55.75 65.542H51.75ZM48.984 74.125C47.1185 76.5451 44.4512 78.5004 40.8764 79.941L42.3716 83.651C46.4795 81.9956 49.7749 79.6509 52.152 76.567L48.984 74.125ZM40.9005 79.9315C37.3352 81.315 33.1457 82.032 28.294 82.032V86.032C33.533 86.032 38.2301 85.2583 42.3476 83.6605L40.9005 79.9315ZM28.294 82.032C23.4423 82.032 19.2528 81.315 15.6876 79.9315L14.2405 83.6605C18.3579 85.2583 23.055 86.032 28.294 86.032V82.032ZM15.7213 79.9449C12.2055 78.5066 9.56081 76.5519 7.69002 74.125L4.52198 76.567C6.89386 79.6441 10.1545 81.9894 14.2067 83.6471L15.7213 79.9449ZM7.71776 74.1618C5.92385 71.7201 5.01 68.8739 5.01 65.542H1.01C1.01 69.6635 2.16015 73.3532 4.49424 76.5302L7.71776 74.1618ZM5.01 65.542C5.01 62.7318 5.69455 60.3345 7.01436 58.2815L3.64964 56.1185C1.87345 58.8815 1.01 62.0456 1.01 65.542H5.01ZM6.9961 58.3094C8.38699 56.2231 10.3742 54.49 13.0344 53.1338L11.2176 49.5702C8.02984 51.1953 5.48768 53.3609 3.6679 56.0906L6.9961 58.3094ZM13.1742 49.6487C11.1902 48.4277 9.71582 46.9367 8.69356 45.1843L5.23844 47.1997C6.62418 49.5753 8.58984 51.5243 11.0778 53.0553L13.1742 49.6487ZM8.70537 45.2048C7.68964 43.4152 7.16 41.3537 7.16 38.968H3.16C3.16 41.9716 3.83436 44.7262 5.22663 47.1792L8.70537 45.2048ZM7.16 38.968C7.16 35.8682 8.01457 33.2616 9.67974 31.0577L6.48827 28.6463C4.25476 31.6024 3.16 35.0732 3.16 38.968H7.16ZM9.67974 31.0577C11.3731 28.8164 13.7751 27.0425 16.9862 25.7791L15.5218 22.0569C11.7382 23.5455 8.69355 25.7276 6.48827 28.6463L9.67974 31.0577ZM17.0124 25.7686C20.2264 24.4514 23.9743 23.768 28.294 23.768V19.768C23.555 19.768 19.2763 20.5179 15.4956 22.0674L17.0124 25.7686ZM28.294 23.768C32.6747 23.768 36.4504 24.4526 39.6616 25.7686L41.1784 22.0674C37.395 20.5168 33.0867 19.768 28.294 19.768V23.768ZM39.698 25.7831C42.9686 27.0492 45.3926 28.824 47.0803 31.0577L50.2717 28.6463C48.0607 25.72 44.9807 23.5388 41.142 22.0529L39.698 25.7831ZM47.0803 31.0577C48.7454 33.2616 49.6 35.8682 49.6 38.968H53.6C53.6 35.0732 52.5052 31.6024 50.2717 28.6463L47.0803 31.0577ZM49.6 38.968C49.6 41.3537 49.0704 43.4152 48.0546 45.2048L51.5334 47.1792C52.9256 44.7262 53.6 41.9716 53.6 38.968H49.6ZM48.0664 45.1843C47.0515 46.9241 45.5587 48.4132 43.519 49.637L45.577 53.067C48.124 51.5388 50.1285 49.5879 51.5216 47.1997L48.0664 45.1843ZM28.294 30.002C25.1577 30.002 22.4132 30.7742 20.2506 32.5043L22.7494 35.6277C24.0268 34.6058 25.8117 34.002 28.294 34.002V30.002ZM20.2572 32.499C18.0604 34.2413 17.006 36.6838 17.006 39.57H21.006C21.006 37.7549 21.6143 36.528 22.7428 35.633L20.2572 32.499ZM17.006 39.57C17.006 42.4173 18.0736 44.8231 20.2572 46.555L22.7428 43.421C21.6011 42.5155 21.006 41.3094 21.006 39.57H17.006ZM20.2572 46.555C22.3798 48.2384 25.1337 48.966 28.294 48.966V44.966C25.721 44.966 23.9456 44.3749 22.7428 43.421L20.2572 46.555ZM28.294 48.966C31.4589 48.966 34.2238 48.2366 36.3909 46.5752L33.9571 43.4008C32.6842 44.3767 30.8624 44.966 28.294 44.966V48.966ZM36.3909 46.5752C38.637 44.8532 39.754 42.4434 39.754 39.57H35.754C35.754 41.2833 35.151 42.4855 33.9571 43.4008L36.3909 46.5752ZM39.754 39.57C39.754 36.658 38.6508 34.2114 36.3909 32.4788L33.9571 35.6532C35.1372 36.5579 35.754 37.7807 35.754 39.57H39.754ZM36.4234 32.5043C34.2541 30.7688 31.4766 30.002 28.294 30.002V34.002C30.8447 34.002 32.6539 34.6112 33.9246 35.6277L36.4234 32.5043ZM28.294 75.798C32.0681 75.798 35.3034 74.9636 37.7716 73.0596L35.3284 69.8924C33.7833 71.0844 31.5146 71.798 28.294 71.798V75.798ZM37.7779 73.0547C40.334 71.0666 41.646 68.3603 41.646 65.112H37.646C37.646 67.1384 36.894 68.6747 35.3221 69.8973L37.7779 73.0547ZM41.646 65.112C41.646 61.8616 40.3306 59.1695 37.75 57.234L35.35 60.434C36.8974 61.5945 37.646 63.0877 37.646 65.112H41.646ZM37.7716 57.2504C35.3034 55.3464 32.0681 54.512 28.294 54.512V58.512C31.5146 58.512 33.7833 59.2256 35.3284 60.4176L37.7716 57.2504ZM28.294 54.512C24.5684 54.512 21.3655 55.3504 18.9024 57.2504L21.3456 60.4176C22.8959 59.2216 25.1396 58.512 28.294 58.512V54.512ZM18.9024 57.2504C16.3821 59.1947 15.114 61.8841 15.114 65.112H19.114C19.114 63.0653 19.8526 61.5693 21.3456 60.4176L18.9024 57.2504ZM15.114 65.112C15.114 68.3812 16.3699 71.106 18.9024 73.0596L21.3456 69.8924C19.8647 68.75 19.114 67.2322 19.114 65.112H15.114ZM18.9024 73.0596C21.3655 74.9596 24.5684 75.798 28.294 75.798V71.798C25.1396 71.798 22.8959 71.0884 21.3456 69.8924L18.9024 73.0596ZM113.275 71.648H115.275V69.648H113.275V71.648ZM113.275 83V85H115.275V83H113.275ZM67.7814 83H65.7814V85H67.7814V83ZM67.7814 73.97L66.4082 72.516L65.7814 73.1079V73.97H67.7814ZM91.0014 52.04L92.3747 53.494L92.3816 53.4875L91.0014 52.04ZM95.9894 46.02L97.7659 46.9388L97.7722 46.9267L97.7783 46.9144L95.9894 46.02ZM94.7854 35.442L93.516 36.9874L93.5458 37.012L93.5767 37.0354L94.7854 35.442ZM80.5094 35.012L81.3444 36.8293L81.3645 36.8201L81.3844 36.8105L80.5094 35.012ZM75.1774 39.484L74.0945 41.1654L75.697 42.1976L76.8049 40.6465L75.1774 39.484ZM65.0294 32.948L63.3695 31.8323L62.2318 33.5251L63.9465 34.6294L65.0294 32.948ZM74.7474 24.778L75.6014 26.5865L75.6117 26.5817L75.6218 26.5767L74.7474 24.778ZM100.633 24.004L99.8153 25.829L99.8341 25.8375L99.8531 25.8455L100.633 24.004ZM108.459 30.196L106.806 31.3216L106.82 31.3419L106.834 31.3618L108.459 30.196ZM109.233 48.772L111.036 49.6375L109.233 48.772ZM101.235 58.576L99.8754 57.1097L99.8689 57.1157L99.8625 57.1217L101.235 58.576ZM87.3894 71.648L86.0165 70.1937L82.3577 73.648H87.3894V71.648ZM111.275 71.648V83H115.275V71.648H111.275ZM113.275 81H67.7814V85H113.275V81ZM69.7814 83V73.97H65.7814V83H69.7814ZM69.1547 75.424L92.3747 53.494L89.6282 50.586L66.4082 72.516L69.1547 75.424ZM92.3816 53.4875C94.8984 51.0877 96.7524 48.8983 97.7659 46.9388L94.213 45.1012C93.5065 46.467 92.0351 48.291 89.6213 50.5925L92.3816 53.4875ZM97.7783 46.9144C98.7554 44.9602 99.2794 42.9644 99.2794 40.946H95.2794C95.2794 42.2529 94.9435 43.6398 94.2006 45.1256L97.7783 46.9144ZM99.2794 40.946C99.2794 38.0216 98.2364 35.5496 95.9942 33.8486L93.5767 37.0354C94.6598 37.8571 95.2794 39.0544 95.2794 40.946H99.2794ZM96.0549 33.8965C93.9476 32.1655 91.0344 31.464 87.6474 31.464V35.464C90.5671 35.464 92.4127 36.0812 93.516 36.9874L96.0549 33.8965ZM87.6474 31.464C84.743 31.464 82.0591 32.034 79.6345 33.2135L81.3844 36.8105C83.2024 35.926 85.2772 35.464 87.6474 35.464V31.464ZM79.6744 33.1946C77.2184 34.3231 75.174 36.0478 73.55 38.3215L76.8049 40.6465C78.0475 38.9068 79.5578 37.6502 81.3444 36.8293L79.6744 33.1946ZM76.2604 37.8026L66.1124 31.2666L63.9465 34.6294L74.0945 41.1654L76.2604 37.8026ZM66.6893 34.0637C68.8221 30.8905 71.7715 28.3951 75.6014 26.5865L73.8934 22.9695C69.4674 25.0596 65.9381 28.0108 63.3695 31.8323L66.6893 34.0637ZM75.6218 26.5767C79.4366 24.7223 83.8595 23.768 88.9374 23.768V19.768C83.3514 19.768 78.3143 20.8203 73.8731 22.9793L75.6218 26.5767ZM88.9374 23.768C93.19 23.768 96.7988 24.4768 99.8153 25.829L101.452 22.179C97.8174 20.5499 93.6289 19.768 88.9374 19.768V23.768ZM99.8531 25.8455C102.928 27.1486 105.214 28.9836 106.806 31.3216L110.113 29.0704C108.035 26.0191 105.104 23.7261 101.414 22.1625L99.8531 25.8455ZM106.834 31.3618C108.455 33.6213 109.297 36.3269 109.297 39.57H113.297C113.297 35.5891 112.248 32.0454 110.085 29.0302L106.834 31.3618ZM109.297 39.57C109.297 42.547 108.673 45.3176 107.43 47.9065L111.036 49.6375C112.546 46.4931 113.297 43.129 113.297 39.57H109.297ZM107.43 47.9065C106.213 50.4424 103.757 53.5089 99.8754 57.1097L102.596 60.0423C106.625 56.3045 109.502 52.8349 111.036 49.6375L107.43 47.9065ZM99.8625 57.1217L86.0165 70.1937L88.7624 73.1023L102.608 60.0303L99.8625 57.1217ZM87.3894 73.648H113.275V69.648H87.3894V73.648ZM131.13 50.836L129.647 52.1786L129.661 52.1932L129.674 52.2076L131.13 50.836ZM131.13 26.67L129.661 25.3123L129.66 25.3134L131.13 26.67ZM152.716 26.67L151.233 28.0126L151.24 28.0196L151.246 28.0266L152.716 26.67ZM152.716 50.836L154.185 52.1926L154.192 52.1856L154.198 52.1786L152.716 50.836ZM177.828 22.8V20.8H176.772L176.176 21.6722L177.828 22.8ZM188.062 22.8L189.714 23.9278L191.849 20.8H188.062V22.8ZM146.954 83V85H148.01L148.605 84.1278L146.954 83ZM136.72 83L135.068 81.8722L132.932 85H136.72V83ZM146.524 45.848L144.896 44.6855L144.882 44.7051L144.869 44.725L146.524 45.848ZM146.524 31.572L144.869 32.695L144.882 32.7149L144.896 32.7345L146.524 31.572ZM137.408 31.658L139.035 32.8205L139.045 32.807L139.054 32.7935L137.408 31.658ZM137.408 45.848L135.761 46.9835L135.771 46.997L135.78 47.0105L137.408 45.848ZM175.076 81.71L174.028 83.4133L174.053 83.4289L174.079 83.4438L175.076 81.71ZM169.83 75.862L171.619 74.9676L169.83 75.862ZM169.83 58.318L171.619 59.2124L169.83 58.318ZM175.076 52.556L176.092 54.2787L176.098 54.2749L176.105 54.271L175.076 52.556ZM193.566 55.05L192.083 56.3926L192.097 56.4072L192.11 56.4216L193.566 55.05ZM193.566 79.216L192.097 77.8583L192.096 77.8594L193.566 79.216ZM187.374 74.228L185.727 73.0925L185.723 73.0987L185.719 73.105L187.374 74.228ZM187.374 60.038L185.701 61.1341L185.723 61.1677L185.746 61.2005L187.374 60.038ZM178.258 59.952L179.885 61.1145L178.258 59.952ZM141.966 53.308C138.054 53.308 134.985 52.0112 132.585 49.4644L129.674 52.2076C132.893 55.6235 137.048 57.308 141.966 57.308V53.308ZM132.612 49.4934C130.266 46.9026 129.002 43.3788 129.002 38.71H125.002C125.002 44.1318 126.49 48.6921 129.647 52.1786L132.612 49.4934ZM129.002 38.71C129.002 34.0395 130.266 30.5541 132.599 28.0266L129.66 25.3134C126.489 28.7486 125.002 33.2899 125.002 38.71H129.002ZM132.598 28.0277C135.002 25.4282 138.067 24.112 141.966 24.112V20.112C137.035 20.112 132.877 21.8344 129.661 25.3123L132.598 28.0277ZM141.966 24.112C145.864 24.112 148.892 25.4273 151.233 28.0126L154.198 25.3274C151.036 21.8353 146.897 20.112 141.966 20.112V24.112ZM151.246 28.0266C153.579 30.5541 154.844 34.0395 154.844 38.71H158.844C158.844 33.2899 157.356 28.7486 154.185 25.3134L151.246 28.0266ZM154.844 38.71C154.844 43.3788 153.58 46.9026 151.233 49.4934L154.198 52.1786C157.356 48.6921 158.844 44.1318 158.844 38.71H154.844ZM151.246 49.4794C148.909 52.0119 145.877 53.308 141.966 53.308V57.308C146.884 57.308 151.019 55.6227 154.185 52.1926L151.246 49.4794ZM177.828 24.8H188.062V20.8H177.828V24.8ZM186.41 21.6722L145.302 81.8722L148.605 84.1278L189.714 23.9278L186.41 21.6722ZM146.954 81H136.72V85H146.954V81ZM138.371 84.1278L179.479 23.9278L176.176 21.6722L135.068 81.8722L138.371 84.1278ZM141.966 50.256C144.574 50.256 146.715 49.128 148.179 46.971L144.869 44.725C144.154 45.7786 143.256 46.256 141.966 46.256V50.256ZM148.151 47.0105C149.646 44.9175 150.244 42.0504 150.244 38.71H146.244C146.244 41.6763 145.695 43.5678 144.896 44.6855L148.151 47.0105ZM150.244 38.71C150.244 35.3696 149.646 32.5025 148.151 30.4095L144.896 32.7345C145.695 33.8522 146.244 35.7437 146.244 38.71H150.244ZM148.179 30.449C146.715 28.292 144.574 27.164 141.966 27.164V31.164C143.256 31.164 144.154 31.6414 144.869 32.695L148.179 30.449ZM141.966 27.164C139.365 27.164 137.252 28.3618 135.761 30.5225L139.054 32.7935C139.857 31.6289 140.782 31.164 141.966 31.164V27.164ZM135.78 30.4955C134.289 32.5836 133.688 35.4175 133.688 38.71H137.688C137.688 35.8105 138.233 33.9431 139.035 32.8205L135.78 30.4955ZM133.688 38.71C133.688 42.0098 134.292 44.8524 135.761 46.9835L139.054 44.7125C138.231 43.5183 137.688 41.6022 137.688 38.71H133.688ZM135.78 47.0105C137.284 49.1149 139.396 50.256 141.966 50.256V46.256C140.752 46.256 139.826 45.7918 139.035 44.6855L135.78 47.0105ZM182.816 81.688C180.269 81.688 178.038 81.106 176.073 79.9762L174.079 83.4438C176.701 84.9513 179.629 85.688 182.816 85.688V81.688ZM176.124 80.0067C174.229 78.8406 172.726 77.1826 171.619 74.9676L168.041 76.7564C169.456 79.5867 171.451 81.8274 174.028 83.4133L176.124 80.0067ZM171.619 74.9676C170.519 72.7682 169.938 70.1602 169.938 67.09H165.938C165.938 70.6705 166.618 73.9105 168.041 76.7564L171.619 74.9676ZM169.938 67.09C169.938 64.0198 170.519 61.4118 171.619 59.2124L168.041 57.4236C166.618 60.2695 165.938 63.5095 165.938 67.09H169.938ZM171.619 59.2124C172.723 57.0035 174.217 55.3846 176.092 54.2787L174.06 50.8333C171.463 52.3647 169.459 54.5872 168.041 57.4236L171.619 59.2124ZM176.105 54.271C178.065 53.0949 180.285 52.492 182.816 52.492V48.492C179.614 48.492 176.673 49.2651 174.047 50.841L176.105 54.271ZM182.816 52.492C186.714 52.492 189.742 53.8073 192.083 56.3926L195.048 53.7074C191.886 50.2153 187.747 48.492 182.816 48.492V52.492ZM192.11 56.4216C194.493 58.9503 195.78 62.4303 195.78 67.09H199.78C199.78 61.659 198.257 57.1123 195.021 53.6784L192.11 56.4216ZM195.78 67.09C195.78 71.7481 194.494 75.2664 192.097 77.8583L195.034 80.5737C198.257 77.0882 199.78 72.5226 199.78 67.09H195.78ZM192.096 77.8594C189.759 80.3919 186.727 81.688 182.816 81.688V85.688C187.734 85.688 191.869 84.0027 195.035 80.5726L192.096 77.8594ZM182.816 78.636C185.424 78.636 187.565 77.508 189.029 75.351L185.719 73.105C185.004 74.1586 184.106 74.636 182.816 74.636V78.636ZM189.02 75.3635C190.49 73.2324 191.094 70.3898 191.094 67.09H187.094C187.094 69.9822 186.551 71.8983 185.727 73.0925L189.02 75.3635ZM191.094 67.09C191.094 63.7975 190.493 60.9636 189.001 58.8755L185.746 61.2005C186.548 62.3231 187.094 64.1905 187.094 67.09H191.094ZM189.047 58.9419C187.597 56.7286 185.455 55.544 182.816 55.544V59.544C184.075 59.544 184.972 60.022 185.701 61.1341L189.047 58.9419ZM182.816 55.544C180.246 55.544 178.134 56.6851 176.63 58.7895L179.885 61.1145C180.676 60.0082 181.602 59.544 182.816 59.544V55.544ZM176.63 58.7895C175.135 60.8825 174.538 63.7496 174.538 67.09H178.538C178.538 64.1237 179.087 62.2322 179.885 61.1145L176.63 58.7895ZM174.538 67.09C174.538 70.4304 175.135 73.2975 176.63 75.3905L179.885 73.0655C179.087 71.9478 178.538 70.0563 178.538 67.09H174.538ZM176.63 75.3905C178.134 77.4949 180.246 78.636 182.816 78.636V74.636C181.602 74.636 180.676 74.1718 179.885 73.0655L176.63 75.3905Z" fill="url(#paint0_linear_188_5980)"/>
<defs>
<linearGradient id="paint0_linear_188_5980" x1="0" y1="52.5" x2="201" y2="52.5" gradientUnits="userSpaceOnUse">
<stop stop-color="#F7941D"/>
<stop offset="1" stop-color="#27AAE1"/>
</linearGradient>
</defs>
</svg>
