<svg width="188" height="105" viewBox="0 0 188 105" fill="none" xmlns="http://www.w3.org/2000/svg">
<path d="M42.828 47.568L43.7094 45.7727H43.7093L42.828 47.568ZM50.31 54.19L48.6255 55.2681L48.6304 55.2759L48.6355 55.2836L50.31 54.19ZM50.052 74.572L48.3831 73.4699L50.052 74.572ZM41.796 81.624L42.6418 83.4364L42.6483 83.4333L42.6547 83.4303L41.796 81.624ZM10.492 76.292L9.02177 77.6479L10.492 76.292ZM7.224 36.646L5.45642 35.7102L7.224 36.646ZM17.974 25.552L17.0193 23.7945L17.0102 23.7996L17.974 25.552ZM43.258 22.886L42.764 24.824L42.7861 24.8297L42.8083 24.8348L43.258 22.886ZM50.826 25.896L52.6118 26.7964L53.4252 25.1833L51.9028 24.2106L50.826 25.896ZM45.666 36.13L44.5492 37.7892L46.4308 39.0556L47.4518 37.0304L45.666 36.13ZM22.274 37.592L23.6882 39.0062L22.274 37.592ZM17.458 50.578L15.4596 50.4973L15.253 55.6114L18.8722 51.9922L17.458 50.578ZM36.722 71.218L35.428 69.693L35.4164 69.7028L35.405 69.7128L36.722 71.218ZM36.722 58.146L35.379 59.628L35.4032 59.6499L35.428 59.671L36.722 58.146ZM21.844 58.232L23.1419 59.7537L23.1547 59.7428L23.1672 59.7317L21.844 58.232ZM21.758 71.132L23.0782 69.6297H23.0782L21.758 71.132ZM32.336 47.246C35.9008 47.246 39.0925 47.9622 41.9467 49.3633L43.7093 45.7727C40.2568 44.0778 36.4539 43.246 32.336 43.246V47.246ZM41.9467 49.3633C44.7828 50.7556 46.9945 52.7197 48.6255 55.2681L51.9945 53.1119C49.9562 49.927 47.1799 47.4764 43.7094 45.7727L41.9467 49.3633ZM48.6355 55.2836C50.2346 57.7323 51.062 60.6112 51.062 63.994H55.062C55.062 59.9235 54.0547 56.2663 51.9845 53.0964L48.6355 55.2836ZM51.062 63.994C51.062 67.6571 50.1519 70.7913 48.3831 73.4699L51.7209 75.6741C53.9654 72.2754 55.062 68.3576 55.062 63.994H51.062ZM48.3831 73.4699C46.5901 76.1849 44.1272 78.3012 40.9373 79.8177L42.6547 83.4303C46.4595 81.6214 49.5005 79.0364 51.7209 75.6741L48.3831 73.4699ZM40.9502 79.8116C37.8047 81.2795 34.257 82.032 30.272 82.032V86.032C34.7723 86.032 38.9073 85.1791 42.6418 83.4364L40.9502 79.8116ZM30.272 82.032C22.281 82.032 16.2671 79.604 11.9622 74.9361L9.02177 77.6479C14.2343 83.3 21.407 86.032 30.272 86.032V82.032ZM11.9622 74.9361C7.65181 70.2622 5.354 63.4474 5.354 54.19H1.354C1.354 64.0819 3.81486 72.0018 9.02177 77.6479L11.9622 74.9361ZM5.354 54.19C5.354 47.6173 6.59627 42.1062 8.99158 37.5818L5.45642 35.7102C2.69173 40.9324 1.354 47.1173 1.354 54.19H5.354ZM8.99158 37.5818C11.3993 33.0338 14.7117 29.6288 18.9378 27.3044L17.0102 23.7996C12.063 26.5205 8.2087 30.5115 5.45642 35.7102L8.99158 37.5818ZM18.9287 27.3094C23.2383 24.9684 28.2617 23.768 34.056 23.768V19.768C27.6956 19.768 21.9977 21.0903 17.0193 23.7945L18.9287 27.3094ZM34.056 23.768C37.1107 23.768 40.0114 24.1224 42.764 24.824L43.752 20.948C40.6566 20.1589 37.4227 19.768 34.056 19.768V23.768ZM42.8083 24.8348C45.6203 25.4837 47.9188 26.412 49.7492 27.5814L51.9028 24.2106C49.6052 22.7427 46.8584 21.6643 43.7077 20.9372L42.8083 24.8348ZM49.0402 24.9956L43.8802 35.2296L47.4518 37.0304L52.6118 26.7964L49.0402 24.9956ZM46.7828 34.4708C43.3948 32.1905 39.2236 31.12 34.4 31.12V35.12C38.6351 35.12 41.9746 36.0562 44.5492 37.7892L46.7828 34.4708ZM34.4 31.12C28.8859 31.12 24.2927 32.7448 20.8598 36.1778L23.6882 39.0062C26.2179 36.4765 29.7087 35.12 34.4 35.12V31.12ZM20.8598 36.1778C17.4149 39.6227 15.7021 44.4965 15.4596 50.4973L19.4564 50.6587C19.6726 45.3075 21.1704 41.524 23.6882 39.0062L20.8598 36.1778ZM18.8722 51.9922C21.9585 48.9059 26.3541 47.246 32.336 47.246V43.246C25.5899 43.246 20.0668 45.1408 16.0438 49.1638L18.8722 51.9922ZM29.498 75.626C32.8511 75.626 35.7631 74.7146 38.039 72.7232L35.405 69.7128C34.0116 70.9321 32.1075 71.626 29.498 71.626V75.626ZM38.016 72.743C40.4081 70.7133 41.56 67.9492 41.56 64.682H37.56C37.56 66.9188 36.8199 68.512 35.428 69.693L38.016 72.743ZM41.56 64.682C41.56 61.4148 40.4081 58.6507 38.016 56.621L35.428 59.671C36.8199 60.852 37.56 62.4452 37.56 64.682H41.56ZM38.065 56.664C35.7767 54.5903 32.7891 53.652 29.326 53.652V57.652C32.0549 57.652 33.9979 58.3764 35.379 59.628L38.065 56.664ZM29.326 53.652C25.8872 53.652 22.8959 54.6366 20.5208 56.7323L23.1672 59.7317C24.6907 58.3874 26.6875 57.652 29.326 57.652V53.652ZM20.5461 56.7103C18.1365 58.7656 16.92 61.4789 16.92 64.682H20.92C20.92 62.6105 21.6529 61.0237 23.1419 59.7537L20.5461 56.7103ZM16.92 64.682C16.92 67.8638 18.0911 70.5721 20.4378 72.6343L23.0782 69.6297C21.6409 68.3666 20.92 66.7749 20.92 64.682H16.92ZM20.4378 72.6343C22.7924 74.7035 25.892 75.626 29.498 75.626V71.626C26.568 71.626 24.5076 70.8858 23.0782 69.6297L20.4378 72.6343ZM78.7518 80.334L79.8207 78.6436L78.7518 80.334ZM69.5498 69.67L67.7352 70.5109L67.7414 70.5243L67.7478 70.5376L69.5498 69.67ZM69.5498 36.216L67.7437 35.357L67.7392 35.3666L69.5498 36.216ZM78.7518 25.466L79.8207 27.1564V27.1564L78.7518 25.466ZM105.412 25.466L104.343 27.1564V27.1564L105.412 25.466ZM114.528 36.216L112.713 37.0569L112.719 37.0703L112.726 37.0836L114.528 36.216ZM114.528 69.67L112.722 68.811L112.717 68.8206L114.528 69.67ZM105.412 80.334L104.343 78.6436L105.412 80.334ZM100.682 67.52L99.0224 66.4036L99.0153 66.4141L99.0084 66.4247L100.682 67.52ZM100.682 38.28L99.0084 39.3753L99.0153 39.3859L99.0224 39.3964L100.682 38.28ZM83.4818 38.28L81.8224 37.1636L81.8153 37.1741L81.8084 37.1847L83.4818 38.28ZM83.4818 67.52L81.8084 68.6153L81.8153 68.6259L81.8224 68.6364L83.4818 67.52ZM92.0818 82.032C87.4402 82.032 83.3735 80.8902 79.8207 78.6436L77.6829 82.0244C81.9274 84.7084 86.7474 86.032 92.0818 86.032V82.032ZM79.8207 78.6436C76.2749 76.4014 73.445 73.1497 71.3518 68.8024L67.7478 70.5376C70.1267 75.4783 73.4314 79.336 77.6829 82.0244L79.8207 78.6436ZM71.3644 68.8291C69.3345 64.4486 68.2818 59.1589 68.2818 52.9H64.2818C64.2818 59.5984 65.4078 65.4887 67.7352 70.5109L71.3644 68.8291ZM68.2818 52.9C68.2818 46.6401 69.3348 41.3833 71.3605 37.0654L67.7392 35.3666C65.4075 40.3367 64.2818 46.2026 64.2818 52.9H68.2818ZM71.3559 37.075C73.4511 32.6698 76.2811 29.3947 79.8207 27.1564L77.6829 23.7756C73.4251 26.468 70.1205 30.3596 67.7437 35.357L71.3559 37.075ZM79.8207 27.1564C83.3735 24.9098 87.4402 23.768 92.0818 23.768V19.768C86.7474 19.768 81.9274 21.0916 77.6829 23.7756L79.8207 27.1564ZM92.0818 23.768C96.7234 23.768 100.79 24.9098 104.343 27.1564L106.481 23.7756C102.236 21.0916 97.4162 19.768 92.0818 19.768V23.768ZM104.343 27.1564C107.877 29.3915 110.676 32.6601 112.713 37.0569L116.342 35.3751C114.023 30.3692 110.744 26.4712 106.481 23.7756L104.343 27.1564ZM112.726 37.0836C114.802 41.3966 115.882 46.6467 115.882 52.9H119.882C119.882 46.196 118.725 40.3234 116.33 35.3484L112.726 37.0836ZM115.882 52.9C115.882 59.1523 114.803 64.4354 112.722 68.811L116.334 70.529C118.725 65.5019 119.882 59.605 119.882 52.9H115.882ZM112.717 68.8206C110.682 73.1592 107.884 76.4045 104.343 78.6436L106.481 82.0244C110.737 79.3328 114.017 75.4688 116.338 70.5194L112.717 68.8206ZM104.343 78.6436C100.79 80.8902 96.7234 82.032 92.0818 82.032V86.032C97.4162 86.032 102.236 84.7084 106.481 82.0244L104.343 78.6436ZM92.0818 74.25C96.4476 74.25 99.9338 72.3147 102.355 68.6153L99.0084 66.4247C97.3018 69.032 95.0547 70.25 92.0818 70.25V74.25ZM102.341 68.6364C104.795 64.9894 105.864 59.6327 105.864 52.9H101.864C101.864 59.354 100.812 63.7439 99.0224 66.4036L102.341 68.6364ZM105.864 52.9C105.864 46.1673 104.795 40.8106 102.341 37.1636L99.0224 39.3964C100.812 42.0561 101.864 46.446 101.864 52.9H105.864ZM102.355 37.1847C99.9338 33.4853 96.4476 31.55 92.0818 31.55V35.55C95.0547 35.55 97.3018 36.768 99.0084 39.3753L102.355 37.1847ZM92.0818 31.55C87.7637 31.55 84.2922 33.4923 81.8224 37.1636L85.1413 39.3964C86.9141 36.761 89.1759 35.55 92.0818 35.55V31.55ZM81.8084 37.1847C79.4247 40.8265 78.3858 46.1737 78.3858 52.9H82.3858C82.3858 46.4397 83.411 42.0401 85.1552 39.3753L81.8084 37.1847ZM78.3858 52.9C78.3858 59.6263 79.4247 64.9735 81.8084 68.6153L85.1552 66.4247C83.411 63.7599 82.3858 59.3603 82.3858 52.9H78.3858ZM81.8224 68.6364C84.2922 72.3077 87.7637 74.25 92.0818 74.25V70.25C89.1759 70.25 86.9141 69.039 85.1413 66.4036L81.8224 68.6364ZM145.291 80.334L146.36 78.6436L145.291 80.334ZM136.089 69.67L134.274 70.5109L134.281 70.5243L134.287 70.5376L136.089 69.67ZM136.089 36.216L134.283 35.357L134.278 35.3666L136.089 36.216ZM145.291 25.466L146.36 27.1564V27.1564L145.291 25.466ZM171.951 25.466L170.882 27.1564V27.1564L171.951 25.466ZM181.067 36.216L179.252 37.0569L179.259 37.0703L179.265 37.0836L181.067 36.216ZM181.067 69.67L179.261 68.811L179.256 68.8206L181.067 69.67ZM171.951 80.334L170.882 78.6436L171.951 80.334ZM167.221 67.52L165.562 66.4036L165.554 66.4141L165.548 66.4247L167.221 67.52ZM167.221 38.28L165.548 39.3753L165.554 39.3859L165.562 39.3964L167.221 38.28ZM150.021 38.28L148.362 37.1636L148.354 37.1741L148.348 37.1847L150.021 38.28ZM150.021 67.52L148.348 68.6153L148.354 68.6259L148.362 68.6364L150.021 67.52ZM158.621 82.032C153.979 82.032 149.913 80.8902 146.36 78.6436L144.222 82.0244C148.467 84.7084 153.287 86.032 158.621 86.032V82.032ZM146.36 78.6436C142.814 76.4014 139.984 73.1497 137.891 68.8024L134.287 70.5376C136.666 75.4783 139.971 79.336 144.222 82.0244L146.36 78.6436ZM137.904 68.8291C135.874 64.4486 134.821 59.1589 134.821 52.9H130.821C130.821 59.5984 131.947 65.4887 134.274 70.5109L137.904 68.8291ZM134.821 52.9C134.821 46.6401 135.874 41.3833 137.9 37.0654L134.278 35.3666C131.947 40.3367 130.821 46.2026 130.821 52.9H134.821ZM137.895 37.075C139.99 32.6698 142.82 29.3947 146.36 27.1564L144.222 23.7756C139.964 26.468 136.66 30.3596 134.283 35.357L137.895 37.075ZM146.36 27.1564C149.913 24.9098 153.979 23.768 158.621 23.768V19.768C153.287 19.768 148.467 21.0916 144.222 23.7756L146.36 27.1564ZM158.621 23.768C163.263 23.768 167.329 24.9098 170.882 27.1564L173.02 23.7756C168.775 21.0916 163.955 19.768 158.621 19.768V23.768ZM170.882 27.1564C174.417 29.3915 177.215 32.6601 179.252 37.0569L182.882 35.3751C180.562 30.3692 177.283 26.4712 173.02 23.7756L170.882 27.1564ZM179.265 37.0836C181.342 41.3966 182.421 46.6467 182.421 52.9H186.421C186.421 46.196 185.264 40.3234 182.869 35.3484L179.265 37.0836ZM182.421 52.9C182.421 59.1523 181.342 64.4354 179.261 68.811L182.873 70.529C185.264 65.5019 186.421 59.605 186.421 52.9H182.421ZM179.256 68.8206C177.221 73.1592 174.423 76.4045 170.882 78.6436L173.02 82.0244C177.276 79.3328 180.556 75.4688 182.878 70.5194L179.256 68.8206ZM170.882 78.6436C167.329 80.8902 163.263 82.032 158.621 82.032V86.032C163.955 86.032 168.775 84.7084 173.02 82.0244L170.882 78.6436ZM158.621 74.25C162.987 74.25 166.473 72.3147 168.894 68.6153L165.548 66.4247C163.841 69.032 161.594 70.25 158.621 70.25V74.25ZM168.88 68.6364C171.334 64.9894 172.403 59.6327 172.403 52.9H168.403C168.403 59.354 167.351 63.7439 165.562 66.4036L168.88 68.6364ZM172.403 52.9C172.403 46.1673 171.334 40.8106 168.88 37.1636L165.562 39.3964C167.351 42.0561 168.403 46.446 168.403 52.9H172.403ZM168.894 37.1847C166.473 33.4853 162.987 31.55 158.621 31.55V35.55C161.594 35.55 163.841 36.768 165.548 39.3753L168.894 37.1847ZM158.621 31.55C154.303 31.55 150.831 33.4923 148.362 37.1636L151.68 39.3964C153.453 36.761 155.715 35.55 158.621 35.55V31.55ZM148.348 37.1847C145.964 40.8265 144.925 46.1737 144.925 52.9H148.925C148.925 46.4397 149.95 42.0401 151.694 39.3753L148.348 37.1847ZM144.925 52.9C144.925 59.6263 145.964 64.9735 148.348 68.6153L151.694 66.4247C149.95 63.7599 148.925 59.3603 148.925 52.9H144.925ZM148.362 68.6364C150.831 72.3077 154.303 74.25 158.621 74.25V70.25C155.715 70.25 153.453 69.039 151.68 66.4036L148.362 68.6364Z" fill="url(#paint0_linear_188_5977)"/>
<defs>
<linearGradient id="paint0_linear_188_5977" x1="0" y1="52.5" x2="188" y2="52.5" gradientUnits="userSpaceOnUse">
<stop stop-color="#F7941D"/>
<stop offset="1" stop-color="#27AAE1"/>
</linearGradient>
</defs>
</svg>
