<svg width="336" height="105" viewBox="0 0 336 105" fill="none" xmlns="http://www.w3.org/2000/svg">
<path d="M44.29 29.508L42.8197 30.8639L42.8273 30.872L44.29 29.508ZM47.558 69.154L45.7904 68.2182L45.7861 68.2264L45.7819 68.2346L47.558 69.154ZM36.808 80.248L37.7627 82.0054L36.808 80.248ZM11.524 83L11.03 84.938L11.0479 84.9426L11.0659 84.9468L11.524 83ZM4.042 79.904L2.25616 79.0036L1.4428 80.6167L2.96522 81.5894L4.042 79.904ZM9.202 69.67L10.3337 68.021L8.44658 66.7259L7.41616 68.7696L9.202 69.67ZM32.594 68.208L34.0082 69.6222L34.0149 69.6155L34.0216 69.6087L32.594 68.208ZM37.41 55.136L39.4084 55.2167L39.615 50.1026L35.9958 53.7218L37.41 55.136ZM11.954 58.232L12.8353 56.4367L11.954 58.232ZM4.472 51.696L2.78746 52.7741L2.79242 52.7819L2.79746 52.7896L4.472 51.696ZM4.73 31.228L3.06107 30.1259H3.06107L4.73 31.228ZM12.9 24.262L13.7458 26.0744L13.7523 26.0713L13.7587 26.0683L12.9 24.262ZM32.938 47.654L34.2582 49.1563L34.2612 49.1537L32.938 47.654ZM33.024 34.668L31.681 36.15L31.6923 36.1602L31.7038 36.1703L33.024 34.668ZM18.06 34.582L16.766 33.057L16.7544 33.0668L16.743 33.0768L18.06 34.582ZM18.06 47.74L16.717 49.222L16.7412 49.2439L16.766 49.265L18.06 47.74ZM24.51 23.768C32.501 23.768 38.5149 26.196 42.8198 30.8639L45.7602 28.1521C40.5477 22.5 33.375 19.768 24.51 19.768V23.768ZM42.8273 30.872C47.1277 35.4832 49.428 42.2898 49.428 51.61H53.428C53.428 41.6662 50.9697 33.7381 45.7527 28.1439L42.8273 30.872ZM49.428 51.61C49.428 58.1827 48.1857 63.6938 45.7904 68.2182L49.3256 70.0898C52.0903 64.8676 53.428 58.6827 53.428 51.61H49.428ZM45.7819 68.2346C43.4356 72.7672 40.1319 76.1664 35.8533 78.4906L37.7627 82.0054C42.7721 79.2842 46.6351 75.2875 49.3341 70.0734L45.7819 68.2346ZM35.8533 78.4906C31.5437 80.8316 26.5203 82.032 20.726 82.032V86.032C27.0864 86.032 32.7843 84.7097 37.7627 82.0054L35.8533 78.4906ZM20.726 82.032C17.659 82.032 14.746 81.7035 11.9821 81.0532L11.0659 84.9468C14.15 85.6725 17.3716 86.032 20.726 86.032V82.032ZM12.018 81.062C9.25446 80.3575 6.96715 79.3995 5.11878 78.2186L2.96522 81.5894C5.24485 83.0458 7.94554 84.1518 11.03 84.938L12.018 81.062ZM5.82784 80.8044L10.9878 70.5704L7.41616 68.7696L2.25616 79.0036L5.82784 80.8044ZM8.07032 71.319C11.4129 73.6129 15.5951 74.68 20.468 74.68V70.68C16.1676 70.68 12.8391 69.7404 10.3337 68.021L8.07032 71.319ZM20.468 74.68C25.9821 74.68 30.5753 73.0552 34.0082 69.6222L31.1798 66.7938C28.6501 69.3235 25.1593 70.68 20.468 70.68V74.68ZM34.0216 69.6087C37.4527 66.1116 39.1658 61.2196 39.4084 55.2167L35.4116 55.0553C35.1955 60.4044 33.698 64.227 31.1664 66.8073L34.0216 69.6087ZM35.9958 53.7218C32.8463 56.8713 28.4175 58.554 22.446 58.554V62.554C29.2025 62.554 34.7497 60.6247 38.8242 56.5502L35.9958 53.7218ZM22.446 58.554C18.8812 58.554 15.6895 57.8378 12.8353 56.4367L11.0727 60.0273C14.5252 61.7222 18.3281 62.554 22.446 62.554V58.554ZM12.8353 56.4367C9.98886 55.0393 7.77526 53.0964 6.14654 50.6024L2.79746 52.7896C4.83807 55.9143 7.61247 58.3287 11.0727 60.0273L12.8353 56.4367ZM6.15654 50.6179C4.54727 48.1034 3.72 45.1882 3.72 41.806H-0.28C-0.28 45.8771 0.727393 49.5553 2.78746 52.7741L6.15654 50.6179ZM3.72 41.806C3.72 38.1429 4.63006 35.0087 6.39893 32.3301L3.06107 30.1259C0.816611 33.5246 -0.28 37.4424 -0.28 41.806H3.72ZM6.39893 32.3301C8.19318 29.6131 10.6256 27.5305 13.7458 26.0744L12.0542 22.4496C8.29443 24.2042 5.28015 26.7656 3.06107 30.1259L6.39893 32.3301ZM13.7587 26.0683C16.9629 24.545 20.5356 23.768 24.51 23.768V19.768C19.999 19.768 15.8317 20.6537 12.0413 22.4557L13.7587 26.0683ZM25.542 52.148C28.9615 52.148 31.9293 51.203 34.2582 49.1563L31.6178 46.1517C30.1627 47.4304 28.1999 48.148 25.542 48.148V52.148ZM34.2612 49.1537C36.648 47.0478 37.862 44.3196 37.862 41.118H33.862C33.862 43.191 33.1267 44.8202 31.6148 46.1543L34.2612 49.1537ZM37.862 41.118C37.862 37.9362 36.6909 35.2279 34.3442 33.1657L31.7038 36.1703C33.1411 37.4334 33.862 39.0251 33.862 41.118H37.862ZM34.367 33.186C32.0598 31.0951 28.9722 30.174 25.37 30.174V34.174C28.3038 34.174 30.3189 34.9156 31.681 36.15L34.367 33.186ZM25.37 30.174C22.0145 30.174 19.0889 31.0861 16.766 33.057L19.354 36.107C20.8151 34.8672 22.7629 34.174 25.37 34.174V30.174ZM16.743 33.0768C14.4156 35.1133 13.308 37.8721 13.308 41.118H17.308C17.308 38.8599 18.0351 37.2614 19.377 36.0872L16.743 33.0768ZM13.308 41.118C13.308 44.3645 14.4147 47.1356 16.717 49.222L19.403 46.258C18.036 45.0191 17.308 43.3755 17.308 41.118H13.308ZM16.766 49.265C19.1022 51.2472 22.0932 52.148 25.542 52.148V48.148C22.7988 48.148 20.8018 47.4435 19.354 46.215L16.766 49.265ZM107.476 51.352L106.447 49.637L103.323 51.5115L106.581 53.1409L107.476 51.352ZM114.27 57.2L112.587 58.2815L112.596 58.2955L112.606 58.3094L114.27 57.2ZM113.496 75.346L115.08 76.567L115.086 76.5591L115.092 76.5512L113.496 75.346ZM104.552 81.796L105.275 83.6605L105.287 83.6559L105.299 83.651L104.552 81.796ZM77.8918 81.796L77.1345 83.6471L77.1513 83.654L77.1683 83.6605L77.8918 81.796ZM69.0338 75.346L67.4221 76.5302L67.4357 76.5487L67.4498 76.567L69.0338 75.346ZM68.2598 57.2L66.5957 56.0906L66.5865 56.1045L66.5775 56.1185L68.2598 57.2ZM75.0538 51.352L75.9622 53.1338L79.136 51.5158L76.102 49.6487L75.0538 51.352ZM69.8938 46.192L68.1544 47.1792L68.1603 47.1895L68.1663 47.1997L69.8938 46.192ZM79.1818 23.918L79.9141 25.7791L79.9272 25.774L79.9403 25.7686L79.1818 23.918ZM103.348 23.918L102.589 25.7686L102.608 25.776L102.626 25.7831L103.348 23.918ZM111.604 29.852L113.2 28.6463V28.6463L111.604 29.852ZM112.722 46.192L114.449 47.1997L114.455 47.1895L114.461 47.1792L112.722 46.192ZM84.4278 34.066L85.6706 35.633L85.6772 35.6277L84.4278 34.066ZM84.4278 44.988L83.185 46.555L84.4278 44.988ZM98.1018 34.066L96.8524 35.6277L96.8686 35.6406L96.8849 35.6532L98.1018 34.066ZM99.4778 71.476L100.699 73.0596L100.706 73.0547L99.4778 71.476ZM99.4778 58.834L98.2562 60.4176L98.267 60.4259L98.2778 60.434L99.4778 58.834ZM83.0518 58.834L81.8302 57.2504L83.0518 58.834ZM83.0518 71.476L81.8302 73.0596L83.0518 71.476ZM106.581 53.1409C109.295 54.4976 111.264 56.2224 112.587 58.2815L115.952 56.1185C114.18 53.3616 111.619 51.1878 108.37 49.5631L106.581 53.1409ZM112.606 58.3094C113.972 60.3594 114.678 62.7466 114.678 65.542H118.678C118.678 62.0308 117.778 58.8566 115.934 56.0906L112.606 58.3094ZM114.678 65.542C114.678 68.8609 113.743 71.6997 111.9 74.1408L115.092 76.5512C117.491 73.3736 118.678 69.6764 118.678 65.542H114.678ZM111.912 74.125C110.046 76.5451 107.379 78.5004 103.804 79.941L105.299 83.651C109.407 81.9956 112.703 79.6509 115.08 76.567L111.912 74.125ZM103.828 79.9315C100.263 81.315 96.0735 82.032 91.2218 82.032V86.032C96.4608 86.032 101.158 85.2583 105.275 83.6605L103.828 79.9315ZM91.2218 82.032C86.3701 82.032 82.1806 81.315 78.6154 79.9315L77.1683 83.6605C81.2857 85.2583 85.9828 86.032 91.2218 86.032V82.032ZM78.6491 79.9449C75.1333 78.5066 72.4886 76.5519 70.6178 74.125L67.4498 76.567C69.8217 79.6441 73.0823 81.9894 77.1345 83.6471L78.6491 79.9449ZM70.6456 74.1618C68.8517 71.7201 67.9378 68.8739 67.9378 65.542H63.9378C63.9378 69.6635 65.088 73.3532 67.4221 76.5302L70.6456 74.1618ZM67.9378 65.542C67.9378 62.7318 68.6224 60.3345 69.9422 58.2815L66.5775 56.1185C64.8013 58.8815 63.9378 62.0456 63.9378 65.542H67.9378ZM69.9239 58.3094C71.3148 56.2231 73.302 54.49 75.9622 53.1338L74.1454 49.5702C70.9577 51.1953 68.4155 53.3609 66.5957 56.0906L69.9239 58.3094ZM76.102 49.6487C74.118 48.4277 72.6436 46.9367 71.6214 45.1843L68.1663 47.1997C69.552 49.5753 71.5176 51.5243 74.0056 53.0553L76.102 49.6487ZM71.6332 45.2048C70.6174 43.4152 70.0878 41.3537 70.0878 38.968H66.0878C66.0878 41.9716 66.7622 44.7262 68.1544 47.1792L71.6332 45.2048ZM70.0878 38.968C70.0878 35.8682 70.9424 33.2616 72.6075 31.0577L69.4161 28.6463C67.1826 31.6024 66.0878 35.0732 66.0878 38.968H70.0878ZM72.6075 31.0577C74.3009 28.8164 76.7029 27.0425 79.9141 25.7791L78.4496 22.0569C74.666 23.5455 71.6214 25.7276 69.4161 28.6463L72.6075 31.0577ZM79.9403 25.7686C83.1542 24.4514 86.9021 23.768 91.2218 23.768V19.768C86.4828 19.768 82.2041 20.5179 78.4234 22.0674L79.9403 25.7686ZM91.2218 23.768C95.6025 23.768 99.3782 24.4526 102.589 25.7686L104.106 22.0674C100.323 20.5168 96.0145 19.768 91.2218 19.768V23.768ZM102.626 25.7831C105.896 27.0492 108.32 28.824 110.008 31.0577L113.2 28.6463C110.989 25.72 107.909 23.5388 104.07 22.0529L102.626 25.7831ZM110.008 31.0577C111.673 33.2616 112.528 35.8682 112.528 38.968H116.528C116.528 35.0732 115.433 31.6024 113.2 28.6463L110.008 31.0577ZM112.528 38.968C112.528 41.3537 111.998 43.4152 110.982 45.2048L114.461 47.1792C115.853 44.7262 116.528 41.9716 116.528 38.968H112.528ZM110.994 45.1843C109.979 46.9241 108.487 48.4132 106.447 49.637L108.505 53.067C111.052 51.5388 113.056 49.5879 114.449 47.1997L110.994 45.1843ZM91.2218 30.002C88.0855 30.002 85.341 30.7742 83.1784 32.5043L85.6772 35.6277C86.9546 34.6058 88.7395 34.002 91.2218 34.002V30.002ZM83.185 32.499C80.9882 34.2413 79.9338 36.6838 79.9338 39.57H83.9338C83.9338 37.7549 84.5421 36.528 85.6706 35.633L83.185 32.499ZM79.9338 39.57C79.9338 42.4173 81.0014 44.8231 83.185 46.555L85.6706 43.421C84.5289 42.5155 83.9338 41.3094 83.9338 39.57H79.9338ZM83.185 46.555C85.3076 48.2384 88.0615 48.966 91.2218 48.966V44.966C88.6488 44.966 86.8734 44.3749 85.6706 43.421L83.185 46.555ZM91.2218 48.966C94.3867 48.966 97.1516 48.2366 99.3187 46.5752L96.8849 43.4008C95.612 44.3767 93.7903 44.966 91.2218 44.966V48.966ZM99.3187 46.5752C101.565 44.8532 102.682 42.4434 102.682 39.57H98.6818C98.6818 41.2833 98.0788 42.4855 96.8849 43.4008L99.3187 46.5752ZM102.682 39.57C102.682 36.658 101.579 34.2114 99.3187 32.4788L96.8849 35.6532C98.065 36.5579 98.6818 37.7807 98.6818 39.57H102.682ZM99.3512 32.5043C97.1819 30.7688 94.4044 30.002 91.2218 30.002V34.002C93.7725 34.002 95.5817 34.6112 96.8524 35.6277L99.3512 32.5043ZM91.2218 75.798C94.9959 75.798 98.2312 74.9636 100.699 73.0596L98.2562 69.8924C96.7111 71.0844 94.4424 71.798 91.2218 71.798V75.798ZM100.706 73.0547C103.262 71.0666 104.574 68.3603 104.574 65.112H100.574C100.574 67.1384 99.8219 68.6747 98.2499 69.8973L100.706 73.0547ZM104.574 65.112C104.574 61.8616 103.258 59.1695 100.678 57.234L98.2778 60.434C99.8252 61.5945 100.574 63.0877 100.574 65.112H104.574ZM100.699 57.2504C98.2312 55.3464 94.9959 54.512 91.2218 54.512V58.512C94.4424 58.512 96.7111 59.2256 98.2562 60.4176L100.699 57.2504ZM91.2218 54.512C87.4962 54.512 84.2933 55.3504 81.8302 57.2504L84.2734 60.4176C85.8237 59.2216 88.0674 58.512 91.2218 58.512V54.512ZM81.8302 57.2504C79.3099 59.1947 78.0418 61.8841 78.0418 65.112H82.0418C82.0418 63.0653 82.7804 61.5693 84.2734 60.4176L81.8302 57.2504ZM78.0418 65.112C78.0418 68.3812 79.2978 71.106 81.8302 73.0596L84.2734 69.8924C82.7925 68.75 82.0418 67.2322 82.0418 65.112H78.0418ZM81.8302 73.0596C84.2933 74.9596 87.4962 75.798 91.2218 75.798V71.798C88.0674 71.798 85.8237 71.0884 84.2734 69.8924L81.8302 73.0596ZM210.879 22.8H212.879V20.8H210.879V22.8ZM210.879 31.83L212.711 32.6308L212.879 32.2479V31.83H210.879ZM188.519 83V85H189.827L190.351 83.8008L188.519 83ZM173.383 83L171.553 82.1916L170.312 85H173.383V83ZM194.969 34.152L196.798 34.9604L198.039 32.152H194.969V34.152ZM175.017 34.152V32.152H173.017V34.152H175.017ZM175.017 43.956V45.956H177.017V43.956H175.017ZM162.633 43.956H160.633V45.956H162.633V43.956ZM162.633 22.8V20.8H160.633V22.8H162.633ZM208.879 22.8V31.83H212.879V22.8H208.879ZM209.046 31.0292L186.686 82.1992L190.351 83.8008L212.711 32.6308L209.046 31.0292ZM188.519 81H173.383V85H188.519V81ZM175.212 83.8084L196.798 34.9604L193.139 33.3436L171.553 82.1916L175.212 83.8084ZM194.969 32.152H175.017V36.152H194.969V32.152ZM173.017 34.152V43.956H177.017V34.152H173.017ZM175.017 41.956H162.633V45.956H175.017V41.956ZM164.633 43.956V22.8H160.633V43.956H164.633ZM162.633 24.8H210.879V20.8H162.633V24.8ZM266.187 29.508L264.717 30.8639L264.724 30.872L266.187 29.508ZM269.455 69.154L267.687 68.2182L267.683 68.2264L267.679 68.2346L269.455 69.154ZM258.705 80.248L259.659 82.0054L258.705 80.248ZM233.421 83L232.927 84.938L232.945 84.9426L232.963 84.9468L233.421 83ZM225.939 79.904L224.153 79.0036L223.34 80.6167L224.862 81.5894L225.939 79.904ZM231.099 69.67L232.23 68.021L230.343 66.7259L229.313 68.7696L231.099 69.67ZM254.491 68.208L255.905 69.6222L255.912 69.6155L255.918 69.6087L254.491 68.208ZM259.307 55.136L261.305 55.2167L261.512 50.1026L257.893 53.7218L259.307 55.136ZM233.851 58.232L234.732 56.4367L233.851 58.232ZM226.369 51.696L224.684 52.7741L224.689 52.7819L224.694 52.7896L226.369 51.696ZM226.627 31.228L224.958 30.1259L226.627 31.228ZM234.797 24.262L235.643 26.0744L235.649 26.0713L235.656 26.0683L234.797 24.262ZM254.835 47.654L256.155 49.1563L256.158 49.1537L254.835 47.654ZM254.921 34.668L253.578 36.15L253.589 36.1602L253.601 36.1703L254.921 34.668ZM239.957 34.582L238.663 33.057L238.651 33.0668L238.64 33.0768L239.957 34.582ZM239.957 47.74L238.614 49.222L238.638 49.2439L238.663 49.265L239.957 47.74ZM246.407 23.768C254.398 23.768 260.412 26.196 264.717 30.8639L267.657 28.1521C262.445 22.5 255.272 19.768 246.407 19.768V23.768ZM264.724 30.872C269.024 35.4832 271.325 42.2898 271.325 51.61H275.325C275.325 41.6662 272.866 33.7381 267.649 28.1439L264.724 30.872ZM271.325 51.61C271.325 58.1827 270.083 63.6938 267.687 68.2182L271.222 70.0898C273.987 64.8676 275.325 58.6827 275.325 51.61H271.325ZM267.679 68.2346C265.332 72.7672 262.029 76.1664 257.75 78.4906L259.659 82.0054C264.669 79.2842 268.532 75.2875 271.231 70.0734L267.679 68.2346ZM257.75 78.4906C253.44 80.8316 248.417 82.032 242.623 82.032V86.032C248.983 86.032 254.681 84.7097 259.659 82.0054L257.75 78.4906ZM242.623 82.032C239.556 82.032 236.643 81.7035 233.879 81.0532L232.963 84.9468C236.047 85.6725 239.268 86.032 242.623 86.032V82.032ZM233.915 81.062C231.151 80.3575 228.864 79.3995 227.016 78.2186L224.862 81.5894C227.142 83.0458 229.842 84.1518 232.927 84.938L233.915 81.062ZM227.725 80.8044L232.885 70.5704L229.313 68.7696L224.153 79.0036L227.725 80.8044ZM229.967 71.319C233.31 73.6129 237.492 74.68 242.365 74.68V70.68C238.064 70.68 234.736 69.7404 232.23 68.021L229.967 71.319ZM242.365 74.68C247.879 74.68 252.472 73.0552 255.905 69.6222L253.077 66.7938C250.547 69.3235 247.056 70.68 242.365 70.68V74.68ZM255.918 69.6087C259.349 66.1116 261.063 61.2196 261.305 55.2167L257.308 55.0553C257.092 60.4044 255.595 64.227 253.063 66.8073L255.918 69.6087ZM257.893 53.7218C254.743 56.8713 250.314 58.554 244.343 58.554V62.554C251.099 62.554 256.647 60.6247 260.721 56.5502L257.893 53.7218ZM244.343 58.554C240.778 58.554 237.586 57.8378 234.732 56.4367L232.969 60.0273C236.422 61.7222 240.225 62.554 244.343 62.554V58.554ZM234.732 56.4367C231.886 55.0393 229.672 53.0964 228.043 50.6024L224.694 52.7896C226.735 55.9143 229.509 58.3287 232.969 60.0273L234.732 56.4367ZM228.053 50.6179C226.444 48.1034 225.617 45.1882 225.617 41.806H221.617C221.617 45.8771 222.624 49.5553 224.684 52.7741L228.053 50.6179ZM225.617 41.806C225.617 38.1429 226.527 35.0087 228.296 32.3301L224.958 30.1259C222.713 33.5246 221.617 37.4424 221.617 41.806H225.617ZM228.296 32.3301C230.09 29.6131 232.522 27.5305 235.643 26.0744L233.951 22.4496C230.191 24.2042 227.177 26.7656 224.958 30.1259L228.296 32.3301ZM235.656 26.0683C238.86 24.545 242.432 23.768 246.407 23.768V19.768C241.896 19.768 237.729 20.6537 233.938 22.4557L235.656 26.0683ZM247.439 52.148C250.858 52.148 253.826 51.203 256.155 49.1563L253.515 46.1517C252.059 47.4304 250.097 48.148 247.439 48.148V52.148ZM256.158 49.1537C258.545 47.0478 259.759 44.3196 259.759 41.118H255.759C255.759 43.191 255.024 44.8202 253.512 46.1543L256.158 49.1537ZM259.759 41.118C259.759 37.9362 258.588 35.2279 256.241 33.1657L253.601 36.1703C255.038 37.4334 255.759 39.0251 255.759 41.118H259.759ZM256.264 33.186C253.957 31.0951 250.869 30.174 247.267 30.174V34.174C250.201 34.174 252.216 34.9156 253.578 36.15L256.264 33.186ZM247.267 30.174C243.911 30.174 240.986 31.0861 238.663 33.057L241.251 36.107C242.712 34.8672 244.66 34.174 247.267 34.174V30.174ZM238.64 33.0768C236.312 35.1133 235.205 37.8721 235.205 41.118H239.205C239.205 38.8599 239.932 37.2614 241.274 36.0872L238.64 33.0768ZM235.205 41.118C235.205 44.3645 236.312 47.1356 238.614 49.222L241.3 46.258C239.933 45.0191 239.205 43.3755 239.205 41.118H235.205ZM238.663 49.265C240.999 51.2472 243.99 52.148 247.439 52.148V48.148C244.696 48.148 242.699 47.4435 241.251 46.215L238.663 49.265ZM327.567 50.492L326.278 52.0213L326.288 52.0302L327.567 50.492ZM330.921 74.142L332.624 75.1902L332.628 75.183L332.633 75.1757L330.921 74.142ZM322.493 81.366L323.354 83.1712L323.365 83.1656L322.493 81.366ZM296.091 82.398L295.548 84.3231L295.564 84.3276L295.58 84.3318L296.091 82.398ZM285.685 77.582L283.907 76.6647L283.116 78.1973L284.516 79.2051L285.685 77.582ZM291.189 66.918L292.389 65.318L290.496 63.8987L289.411 66.0007L291.189 66.918ZM299.101 70.96L298.479 72.861L298.496 72.8664L298.512 72.8716L299.101 70.96ZM316.559 70.272L317.69 71.9215L316.559 70.272ZM316.387 58.662L315.31 60.3474L315.32 60.354L315.331 60.3606L316.387 58.662ZM290.157 56.684L288.165 56.502L287.966 58.684H290.157V56.684ZM293.253 22.8V20.8H291.427L291.261 22.618L293.253 22.8ZM329.975 22.8H331.975V20.8H329.975V22.8ZM329.975 33.98V35.98H331.975V33.98H329.975ZM304.863 33.98V31.98H303.021L302.869 33.8151L304.863 33.98ZM303.917 45.418L301.923 45.2531L301.744 47.418H303.917V45.418ZM308.819 47.418C317.104 47.418 322.789 49.081 326.278 52.0213L328.856 48.9627C324.317 45.1376 317.504 43.418 308.819 43.418V47.418ZM326.288 52.0302C329.865 55.0026 331.673 58.9494 331.673 64.08H335.673C335.673 57.8586 333.409 52.7467 328.845 48.9538L326.288 52.0302ZM331.673 64.08C331.673 67.3979 330.848 70.3924 329.208 73.1083L332.633 75.1757C334.662 71.8143 335.673 68.1008 335.673 64.08H331.673ZM329.217 73.0938C327.619 75.6904 325.131 77.8641 321.62 79.5664L323.365 83.1656C327.422 81.1985 330.553 78.5562 332.624 75.1902L329.217 73.0938ZM321.632 79.5608C318.248 81.1746 313.947 82.032 308.647 82.032V86.032C314.354 86.032 319.284 85.1121 323.354 83.1712L321.632 79.5608ZM308.647 82.032C304.577 82.032 300.563 81.5099 296.601 80.4642L295.58 84.3318C299.874 85.4648 304.231 86.032 308.647 86.032V82.032ZM296.633 80.4729C292.744 79.3774 289.497 77.8625 286.853 75.9589L284.516 79.2051C287.605 81.4295 291.296 83.1252 295.548 84.3231L296.633 80.4729ZM287.462 78.4993L292.966 67.8353L289.411 66.0007L283.907 76.6647L287.462 78.4993ZM289.989 68.518C292.473 70.3811 295.309 71.8247 298.479 72.861L299.722 69.059C296.929 68.146 294.491 66.8949 292.389 65.318L289.989 68.518ZM298.512 72.8716C301.686 73.8482 304.952 74.336 308.303 74.336V70.336C305.346 70.336 302.477 69.9065 299.689 69.0484L298.512 72.8716ZM308.303 74.336C312.035 74.336 315.234 73.6056 317.69 71.9215L315.428 68.6225C313.87 69.6904 311.565 70.336 308.303 70.336V74.336ZM317.69 71.9215C320.249 70.1666 321.569 67.6243 321.569 64.51H317.569C317.569 66.3264 316.882 67.6254 315.428 68.6225L317.69 71.9215ZM321.569 64.51C321.569 61.2664 320.174 58.6614 317.442 56.9634L315.331 60.3606C316.842 61.2999 317.569 62.5936 317.569 64.51H321.569ZM317.463 56.9766C314.879 55.3252 310.754 54.684 305.551 54.684V58.684C310.668 58.684 313.767 59.3615 315.31 60.3474L317.463 56.9766ZM305.551 54.684H290.157V58.684H305.551V54.684ZM292.148 56.866L295.244 22.982L291.261 22.618L288.165 56.502L292.148 56.866ZM293.253 24.8H329.975V20.8H293.253V24.8ZM327.975 22.8V33.98H331.975V22.8H327.975ZM329.975 31.98H304.863V35.98H329.975V31.98ZM302.869 33.8151L301.923 45.2531L305.91 45.5829L306.856 34.1448L302.869 33.8151ZM303.917 47.418H308.819V43.418H303.917V47.418Z" fill="url(#paint0_linear_188_5983)"/>
<defs>
<linearGradient id="paint0_linear_188_5983" x1="0" y1="52.5" x2="336" y2="52.5" gradientUnits="userSpaceOnUse">
<stop stop-color="#F7941D"/>
<stop offset="1" stop-color="#27AAE1"/>
</linearGradient>
</defs>
</svg>
