<svg width="144" height="144" viewBox="0 0 144 144" fill="none" xmlns="http://www.w3.org/2000/svg">
<path d="M141.69 36.4343L141.67 36.4519L141.652 36.4705L110.588 67.5701C108.229 69.9316 108.229 74.0684 110.588 76.4299L141.652 107.53C143.231 109.11 143.231 111.982 141.652 113.563L113.431 141.815C111.853 143.395 108.987 143.395 107.409 141.815L76.3444 110.715C73.9849 108.353 69.851 108.353 67.4915 110.715L36.4273 141.815C34.849 143.395 31.9827 143.395 30.4044 141.815L2.18415 113.563C0.605281 111.982 0.605283 109.11 2.18415 107.53L33.2483 76.4299C35.6071 74.0684 35.6071 69.9316 33.2483 67.5701L2.18415 36.4705C0.605283 34.8898 0.605282 32.0182 2.18415 30.4375L30.4044 2.18503C31.9827 0.60499 34.849 0.60499 36.4273 2.18503L67.4915 33.2846C69.851 35.6468 73.9849 35.6468 76.3444 33.2846L107.409 2.18503C108.987 0.60499 111.853 0.60499 113.431 2.18503L141.652 30.4375C143.471 32.259 143.415 34.88 141.69 36.4343Z" stroke="url(#paint0_linear_163_6900)" stroke-width="2"/>
<defs>
<linearGradient id="paint0_linear_163_6900" x1="0" y1="72" x2="144" y2="72" gradientUnits="userSpaceOnUse">
<stop stop-color="#F7941D"/>
<stop offset="1" stop-color="#27AAE1"/>
</linearGradient>
</defs>
</svg>
