<svg width="18" height="18" viewBox="0 0 18 18" fill="none" xmlns="http://www.w3.org/2000/svg">
<path d="M17.7188 9.25C17.7188 11.4062 17.0156 13.3047 15.6094 14.9453C14.2031 16.5625 12.457 17.5352 10.3711 17.8633V11.7812H12.4102L12.7969 9.25H10.3711V7.59766C10.3711 6.70703 10.8398 6.26172 11.7773 6.26172H12.8672V4.11719C12.2109 4 11.5664 3.94141 10.9336 3.94141C10.2539 3.94141 9.66797 4.07031 9.17578 4.32812C8.70703 4.58594 8.33203 4.97266 8.05078 5.48828C7.76953 6.00391 7.62891 6.61328 7.62891 7.31641V9.25H5.41406V11.7812H7.62891V17.8633C5.54297 17.5352 3.79688 16.5625 2.39062 14.9453C0.984375 13.3047 0.28125 11.4062 0.28125 9.25C0.28125 6.83594 1.125 4.78516 2.8125 3.09766C4.52344 1.38672 6.58594 0.53125 9 0.53125C11.4141 0.53125 13.4648 1.38672 15.1523 3.09766C16.8633 4.78516 17.7188 6.83594 17.7188 9.25Z" fill="url(#paint0_linear_163_4256)"/>
<defs>
<linearGradient id="paint0_linear_163_4256" x1="0" y1="9" x2="18" y2="9" gradientUnits="userSpaceOnUse">
<stop stop-color="#F7941D"/>
<stop offset="1" stop-color="#27AAE1"/>
</linearGradient>
</defs>
</svg>
