<svg width="16" height="17" viewBox="0 0 16 17" fill="none" xmlns="http://www.w3.org/2000/svg">
<path d="M5.02734 5.40234C5.82422 4.60547 6.78516 4.20703 7.91016 4.20703C9.03516 4.20703 9.98438 4.60547 10.7578 5.40234C11.5547 6.17578 11.9531 7.125 11.9531 8.25C11.9531 9.375 11.5547 10.3359 10.7578 11.1328C9.98438 11.9062 9.03516 12.293 7.91016 12.293C6.78516 12.293 5.82422 11.9062 5.02734 11.1328C4.25391 10.3359 3.86719 9.375 3.86719 8.25C3.86719 7.125 4.25391 6.17578 5.02734 5.40234ZM6.04688 10.1133C6.5625 10.6289 7.18359 10.8867 7.91016 10.8867C8.63672 10.8867 9.25781 10.6289 9.77344 10.1133C10.2891 9.59766 10.5469 8.97656 10.5469 8.25C10.5469 7.52344 10.2891 6.90234 9.77344 6.38672C9.25781 5.87109 8.63672 5.61328 7.91016 5.61328C7.18359 5.61328 6.5625 5.87109 6.04688 6.38672C5.53125 6.90234 5.27344 7.52344 5.27344 8.25C5.27344 8.97656 5.53125 9.59766 6.04688 10.1133ZM12.7617 3.39844C12.9492 3.5625 13.043 3.77344 13.043 4.03125C13.043 4.28906 12.9492 4.51172 12.7617 4.69922C12.5977 4.88672 12.3867 4.98047 12.1289 4.98047C11.8711 4.98047 11.6484 4.88672 11.4609 4.69922C11.2734 4.51172 11.1797 4.28906 11.1797 4.03125C11.1797 3.77344 11.2734 3.5625 11.4609 3.39844C11.6484 3.21094 11.8711 3.11719 12.1289 3.11719C12.3867 3.11719 12.5977 3.21094 12.7617 3.39844ZM15.75 5.01562C15.7734 5.64844 15.7852 6.72656 15.7852 8.25C15.7852 9.77344 15.7734 10.8516 15.75 11.4844C15.6797 12.9141 15.2461 14.0273 14.4492 14.8242C13.6758 15.5977 12.5742 16.0078 11.1445 16.0547C10.5117 16.1016 9.43359 16.125 7.91016 16.125C6.38672 16.125 5.30859 16.1016 4.67578 16.0547C3.24609 15.9844 2.14453 15.5625 1.37109 14.7891C1.06641 14.5078 0.820312 14.1797 0.632812 13.8047C0.445312 13.4297 0.304688 13.0664 0.210938 12.7148C0.140625 12.3633 0.105469 11.9531 0.105469 11.4844C0.0585937 10.8516 0.0351562 9.77344 0.0351562 8.25C0.0351562 6.72656 0.0585937 5.63672 0.105469 4.98047C0.175781 3.57422 0.597656 2.48438 1.37109 1.71094C2.14453 0.914062 3.24609 0.480469 4.67578 0.410156C5.30859 0.386719 6.38672 0.375 7.91016 0.375C9.43359 0.375 10.5117 0.386719 11.1445 0.410156C12.5742 0.480469 13.6758 0.914062 14.4492 1.71094C15.2461 2.48438 15.6797 3.58594 15.75 5.01562ZM14.0625 12.8906C14.1328 12.7031 14.1914 12.4688 14.2383 12.1875C14.2852 11.8828 14.3203 11.5312 14.3438 11.1328C14.3672 10.7109 14.3789 10.3711 14.3789 10.1133C14.3789 9.85547 14.3789 9.49219 14.3789 9.02344C14.3789 8.55469 14.3789 8.29688 14.3789 8.25C14.3789 8.17969 14.3789 7.92188 14.3789 7.47656C14.3789 7.00781 14.3789 6.64453 14.3789 6.38672C14.3789 6.12891 14.3672 5.80078 14.3438 5.40234C14.3203 4.98047 14.2852 4.62891 14.2383 4.34766C14.1914 4.04297 14.1328 3.79688 14.0625 3.60938C13.7812 2.88281 13.2773 2.37891 12.5508 2.09766C12.3633 2.02734 12.1172 1.96875 11.8125 1.92188C11.5312 1.875 11.1797 1.83984 10.7578 1.81641C10.3594 1.79297 10.0312 1.78125 9.77344 1.78125C9.53906 1.78125 9.17578 1.78125 8.68359 1.78125C8.21484 1.78125 7.95703 1.78125 7.91016 1.78125C7.86328 1.78125 7.60547 1.78125 7.13672 1.78125C6.66797 1.78125 6.30469 1.78125 6.04688 1.78125C5.78906 1.78125 5.44922 1.79297 5.02734 1.81641C4.62891 1.83984 4.27734 1.875 3.97266 1.92188C3.69141 1.96875 3.45703 2.02734 3.26953 2.09766C2.54297 2.37891 2.03906 2.88281 1.75781 3.60938C1.6875 3.79688 1.62891 4.04297 1.58203 4.34766C1.53516 4.62891 1.5 4.98047 1.47656 5.40234C1.45312 5.80078 1.44141 6.12891 1.44141 6.38672C1.44141 6.62109 1.44141 6.98438 1.44141 7.47656C1.44141 7.94531 1.44141 8.20312 1.44141 8.25C1.44141 8.34375 1.44141 8.56641 1.44141 8.91797C1.44141 9.24609 1.44141 9.52734 1.44141 9.76172C1.44141 9.97266 1.44141 10.2539 1.44141 10.6055C1.46484 10.957 1.48828 11.2617 1.51172 11.5195C1.53516 11.7539 1.57031 12 1.61719 12.2578C1.66406 12.5156 1.71094 12.7266 1.75781 12.8906C2.0625 13.6172 2.56641 14.1211 3.26953 14.4023C3.45703 14.4727 3.69141 14.5312 3.97266 14.5781C4.27734 14.625 4.62891 14.6602 5.02734 14.6836C5.44922 14.707 5.77734 14.7188 6.01172 14.7188C6.26953 14.7188 6.63281 14.7188 7.10156 14.7188C7.59375 14.7188 7.86328 14.7188 7.91016 14.7188C7.98047 14.7188 8.23828 14.7188 8.68359 14.7188C9.15234 14.7188 9.51562 14.7188 9.77344 14.7188C10.0312 14.7188 10.3594 14.707 10.7578 14.6836C11.1797 14.6602 11.5312 14.625 11.8125 14.5781C12.1172 14.5312 12.3633 14.4727 12.5508 14.4023C13.2773 14.0977 13.7812 13.5938 14.0625 12.8906Z" fill="url(#paint0_linear_163_4252)"/>
<defs>
<linearGradient id="paint0_linear_163_4252" x1="0" y1="8" x2="16" y2="8" gradientUnits="userSpaceOnUse">
<stop stop-color="#F7941D"/>
<stop offset="1" stop-color="#27AAE1"/>
</linearGradient>
</defs>
</svg>
