<svg width="22" height="28" viewBox="0 0 22 28" fill="none" xmlns="http://www.w3.org/2000/svg">
<path fill-rule="evenodd" clip-rule="evenodd" d="M19.5589 11.7209C19.5589 14.9389 17.3378 18.3934 14.695 21.2759C13.4209 22.6656 12.1402 23.8241 11.1757 24.6361C11.0349 24.7546 10.9013 24.8655 10.7757 24.9683C10.6511 24.8669 10.5187 24.7576 10.3793 24.6409C9.4154 23.8337 8.13554 22.681 6.86225 21.2956C4.22317 18.4243 2 14.9689 2 11.7209C2 6.8721 5.9307 2.94141 10.7795 2.94141C15.6282 2.94141 19.5589 6.8721 19.5589 11.7209ZM21.5589 11.7209C21.5589 19.766 10.7795 27.5003 10.7795 27.5003C10.7795 27.5003 0 19.8233 0 11.7209C0 5.76753 4.82613 0.941406 10.7795 0.941406C16.7328 0.941406 21.5589 5.76753 21.5589 11.7209ZM13.3385 11.4212C13.3385 12.835 12.1924 13.9811 10.7786 13.9811C9.36485 13.9811 8.21875 12.835 8.21875 11.4212C8.21875 10.0074 9.36485 8.86133 10.7786 8.86133C12.1924 8.86133 13.3385 10.0074 13.3385 11.4212ZM15.3385 11.4212C15.3385 13.9396 13.297 15.9811 10.7786 15.9811C8.26028 15.9811 6.21875 13.9396 6.21875 11.4212C6.21875 8.90286 8.26028 6.86133 10.7786 6.86133C13.297 6.86133 15.3385 8.90286 15.3385 11.4212Z" fill="url(#paint0_linear_163_4249)"/>
<defs>
<linearGradient id="paint0_linear_163_4249" x1="0" y1="14.2209" x2="21.5589" y2="14.2209" gradientUnits="userSpaceOnUse">
<stop stop-color="#F7941D"/>
<stop offset="1" stop-color="#27AAE1"/>
</linearGradient>
</defs>
</svg>
