<svg width="24" height="17" viewBox="0 0 24 17" fill="none" xmlns="http://www.w3.org/2000/svg">
<path fill-rule="evenodd" clip-rule="evenodd" d="M21.9698 3.24608V14.9418L2 14.9418L2 3.19211L6.5782 6.35247L4.56348 8.36717C4.17295 8.75769 4.17295 9.39086 4.56347 9.78138C4.95399 10.1719 5.58716 10.1719 5.97768 9.78139L8.25152 7.50758L11.7511 9.92336L15.7787 7.29157L18.2686 9.78139C18.6591 10.1719 19.2922 10.1719 19.6828 9.78138C20.0733 9.39086 20.0733 8.75769 19.6828 8.36717L17.4893 6.17378L21.9698 3.24608ZM20.2205 2L3.7936 2L11.7817 7.51424L20.2205 2ZM21.9698 0C23.0744 0 23.9698 0.895431 23.9698 2V14.9418C23.9698 16.0463 23.0744 16.9418 21.9698 16.9418L2 16.9418C0.895431 16.9418 0 16.0463 0 14.9418V2C0 0.895429 0.895432 0 2 0H21.9698Z" fill="url(#paint0_linear_163_4233)"/>
<defs>
<linearGradient id="paint0_linear_163_4233" x1="0" y1="8.47088" x2="23.9698" y2="8.47088" gradientUnits="userSpaceOnUse">
<stop stop-color="#F7941D"/>
<stop offset="1" stop-color="#27AAE1"/>
</linearGradient>
</defs>
</svg>
