<svg width="17" height="24" viewBox="0 0 17 24" fill="none" xmlns="http://www.w3.org/2000/svg">
<path fill-rule="evenodd" clip-rule="evenodd" d="M2 2H14.0147V21.9698L2 21.9698L2 2ZM0 2C0 0.895432 0.895431 0 2 0H14.0147C15.1193 0 16.0147 0.895431 16.0147 2V21.9698C16.0147 23.0744 15.1193 23.9698 14.0147 23.9698H2C0.89543 23.9698 0 23.0744 0 21.9698V2ZM5.99023 17.9375C5.43795 17.9375 4.99023 18.3852 4.99023 18.9375C4.99023 19.4898 5.43795 19.9375 5.99023 19.9375H10.026C10.5782 19.9375 11.026 19.4898 11.026 18.9375C11.026 18.3852 10.5782 17.9375 10.026 17.9375H5.99023Z" fill="url(#paint0_linear_163_4242)"/>
<defs>
<linearGradient id="paint0_linear_163_4242" x1="0" y1="11.9849" x2="16.0147" y2="11.9849" gradientUnits="userSpaceOnUse">
<stop stop-color="#F7941D"/>
<stop offset="1" stop-color="#27AAE1"/>
</linearGradient>
</defs>
</svg>
