<svg width="16" height="15" viewBox="0 0 16 15" fill="none" xmlns="http://www.w3.org/2000/svg">
<path d="M15.75 1.73047L13.3594 12.9102C13.1719 13.707 12.7383 13.918 12.0586 13.543L8.4375 10.8711L6.67969 12.5586C6.44531 12.793 6.19922 12.9102 5.94141 12.9102L6.22266 9.21875L12.9375 3.17188C13.1016 3.00781 13.1016 2.91406 12.9375 2.89062C12.7969 2.84375 12.6445 2.87891 12.4805 2.99609L4.18359 8.23438L0.597656 7.10938C0.199219 6.99219 0.0117187 6.81641 0.0351562 6.58203C0.0585938 6.34766 0.304688 6.14844 0.773438 5.98438L14.7305 0.570312C15.082 0.453125 15.3633 0.5 15.5742 0.710938C15.7852 0.898437 15.8438 1.23828 15.75 1.73047Z" fill="url(#paint0_linear_163_4254)"/>
<defs>
<linearGradient id="paint0_linear_163_4254" x1="0" y1="7" x2="16" y2="7" gradientUnits="userSpaceOnUse">
<stop stop-color="#F7941D"/>
<stop offset="1" stop-color="#27AAE1"/>
</linearGradient>
</defs>
</svg>
