<svg width="116" height="31" viewBox="0 0 116 31" fill="none" xmlns="http://www.w3.org/2000/svg">
<path d="M7.60656 1.04297H108.393C112.318 1.04297 115.5 4.22468 115.5 8.14953V23.3626C115.5 27.2875 112.318 30.4692 108.393 30.4692H7.60656C3.68171 30.4692 0.5 27.2875 0.5 23.3626V8.14953C0.5 4.22468 3.68171 1.04297 7.60656 1.04297Z" stroke="url(#paint0_linear_163_4257)"/>
<path fill-rule="evenodd" clip-rule="evenodd" d="M64.567 8.14844C64.5299 11.1087 64.3279 12.7725 63.2178 13.8828C62.1077 14.9931 60.4443 15.1951 57.4844 15.2319V15.6696C60.4443 15.7064 62.1077 15.9084 63.2178 17.0187C64.3279 18.129 64.5299 19.7928 64.567 22.753H65.0044C65.0415 19.7928 65.2435 18.129 66.3536 17.0187C67.4637 15.9084 69.1272 15.7063 72.0875 15.6696V15.2319C69.1272 15.1951 67.4637 14.9931 66.3536 13.8828C65.2435 12.7725 65.0415 11.1087 65.0044 8.14844H64.567Z" fill="url(#paint1_linear_163_4257)"/>
<path d="M14.9025 20.9283H16.8167V9.93225H14.0323C11.2322 9.93225 9.76092 11.372 9.76092 13.4921C9.76092 15.185 10.5677 16.1818 12.0074 17.2102L9.50781 20.9283H11.5803L14.3646 16.7672L13.3996 16.1185C12.2289 15.3274 11.6593 14.7104 11.6593 13.3813C11.6593 12.2106 12.482 11.4195 14.0482 11.4195H14.9025V20.9283ZM51.8107 21.0865C52.6807 21.0865 53.2978 20.9283 53.7566 20.596V19.0613C53.2821 19.3936 52.7126 19.5993 51.9215 19.5993C50.5766 19.5993 50.0232 18.555 50.0232 16.9096C50.0232 15.185 50.7035 14.299 51.9372 14.299C52.665 14.299 53.3767 14.5521 53.7566 14.7895V13.1915C53.361 12.97 52.665 12.8118 51.7318 12.8118C49.3272 12.8118 48.0773 14.5364 48.0773 16.9571C48.0773 19.6151 49.2953 21.0865 51.8107 21.0865ZM40.0406 20.3904V18.8556C39.4552 19.2512 38.4744 19.5993 37.5568 19.5993C36.1805 19.5993 35.6584 18.9506 35.5793 17.6216H40.1197V16.6248C40.1197 13.856 38.9015 12.8118 37.0189 12.8118C34.725 12.8118 33.6334 14.568 33.6334 16.9729C33.6334 19.7417 34.994 21.0865 37.3986 21.0865C38.6009 21.0865 39.4869 20.7701 40.0406 20.3904ZM22.7967 12.97V16.1185H20.2813V12.97H18.3987V20.9283H20.2813V17.6057H22.7967V20.9283H24.6793V12.97H22.7967ZM33.1747 19.4411H32.3362V12.97H26.8466V13.6503C26.8466 15.5964 26.7201 18.112 26.0556 19.4411H25.4703V22.7478H27.2105V20.9283H31.4345V22.7478H33.1747V19.4411ZM46.0522 20.9283H48.1881L45.1663 16.6406L47.8239 12.97H45.9256L43.2679 16.6406V12.97H41.3853V20.9283H43.2679V17.0203L46.0522 20.9283ZM36.9873 14.299C37.9207 14.299 38.2055 15.0743 38.2055 16.071V16.2292H35.5793C35.6268 14.9635 36.0856 14.299 36.9873 14.299ZM30.4536 19.4411H27.7958C28.3179 18.2386 28.4603 16.071 28.4603 14.6946V14.4572H30.4536V19.4411Z" fill="url(#paint2_linear_163_4257)"/>
<path d="M77.1176 23.221V20.9268H83.0027V23.221H84.7907V19.4396H83.7624V9.93079H77.0387L76.849 15.3893C76.7858 17.1613 76.5956 18.601 76.0893 19.4396H75.3301V23.221H77.1176ZM78.5258 15.6424L78.6679 11.418H81.8479V19.4396H77.893C78.2253 18.696 78.4626 17.4144 78.5258 15.6424Z" fill="url(#paint3_linear_163_4257)"/>
<path d="M88.0023 19.5985C87.0373 19.5985 86.0883 19.2504 85.582 18.8707V20.4054C85.9457 20.706 86.8633 21.0857 88.2239 21.0857C90.233 21.0857 91.2931 20.1839 91.2931 18.5859C91.2931 17.6524 90.7079 17.0196 89.6634 16.7981C90.6447 16.4816 91.0559 15.7855 91.0559 14.8995C91.0559 13.5546 89.9957 12.811 88.2871 12.811C87.0534 12.811 86.2467 13.1907 85.7879 13.4755V15.0102C86.2937 14.678 86.9902 14.2983 88.0185 14.2983C88.7145 14.2983 89.1576 14.6305 89.1576 15.2159C89.1576 15.8329 88.7777 16.1652 88.0023 16.1652H86.8162V17.5891H88.0023C88.9674 17.5891 89.3473 17.874 89.3473 18.5701C89.3473 19.203 88.8885 19.5985 88.0023 19.5985Z" fill="url(#paint4_linear_163_4257)"/>
<path d="M98.4169 20.3896V18.8549C97.8312 19.2504 96.8504 19.5985 95.9328 19.5985C94.5565 19.5985 94.0345 18.9498 93.9556 17.6208H98.4958V16.624C98.4958 13.8552 97.2778 12.811 95.3952 12.811C93.1013 12.811 92.0098 14.5672 92.0098 16.9721C92.0098 19.7409 93.3699 21.0857 95.775 21.0857C96.9773 21.0857 97.863 20.7693 98.4169 20.3896ZM95.3633 14.2983C96.297 14.2983 96.5818 15.0735 96.5818 16.0703V16.2285H93.9556C94.0032 14.9627 94.4619 14.2983 95.3633 14.2983Z" fill="url(#paint5_linear_163_4257)"/>
<path d="M104.154 12.9697V16.1182H101.638V12.9697H99.7559V20.928H101.638V17.6054H104.154V20.928H106.036V12.9697H104.154Z" fill="url(#paint6_linear_163_4257)"/>
<defs>
<linearGradient id="paint0_linear_163_4257" x1="0" y1="15.7561" x2="116" y2="15.7561" gradientUnits="userSpaceOnUse">
<stop stop-color="#F7941D"/>
<stop offset="1" stop-color="#27AAE1"/>
</linearGradient>
<linearGradient id="paint1_linear_163_4257" x1="57.4844" y1="15.4507" x2="72.0875" y2="15.4507" gradientUnits="userSpaceOnUse">
<stop stop-color="#F7941D"/>
<stop offset="1" stop-color="#27AAE1"/>
</linearGradient>
<linearGradient id="paint2_linear_163_4257" x1="9.50781" y1="16.34" x2="53.7566" y2="16.34" gradientUnits="userSpaceOnUse">
<stop stop-color="#F7941D"/>
<stop offset="1" stop-color="#27AAE1"/>
</linearGradient>
<linearGradient id="paint3_linear_163_4257" x1="75.3301" y1="16.5759" x2="84.7907" y2="16.5759" gradientUnits="userSpaceOnUse">
<stop stop-color="#F7941D"/>
<stop offset="1" stop-color="#27AAE1"/>
</linearGradient>
<linearGradient id="paint4_linear_163_4257" x1="85.582" y1="16.9484" x2="91.2931" y2="16.9484" gradientUnits="userSpaceOnUse">
<stop stop-color="#F7941D"/>
<stop offset="1" stop-color="#27AAE1"/>
</linearGradient>
<linearGradient id="paint5_linear_163_4257" x1="92.0098" y1="16.9484" x2="98.4958" y2="16.9484" gradientUnits="userSpaceOnUse">
<stop stop-color="#F7941D"/>
<stop offset="1" stop-color="#27AAE1"/>
</linearGradient>
<linearGradient id="paint6_linear_163_4257" x1="99.7559" y1="16.9489" x2="106.036" y2="16.9489" gradientUnits="userSpaceOnUse">
<stop stop-color="#F7941D"/>
<stop offset="1" stop-color="#27AAE1"/>
</linearGradient>
</defs>
</svg>
