<svg width="60" height="61" viewBox="0 0 60 61" fill="none" xmlns="http://www.w3.org/2000/svg">
<path d="M11.613 6.38232C8.40329 6.38232 5.80652 8.9791 5.80652 12.1888C5.80652 15.3985 8.40329 17.9952 11.613 17.9952C14.8226 17.9952 17.4194 15.3985 17.4194 12.1888C17.4194 8.9791 14.8226 6.38232 11.613 6.38232ZM11.613 16.0597C9.48394 16.0597 7.742 14.3178 7.742 12.1888C7.742 10.0597 9.48394 8.31781 11.613 8.31781C13.742 8.31781 15.4839 10.0597 15.4839 12.1888C15.4839 14.3178 13.742 16.0597 11.613 16.0597Z" fill="#00093C"/>
<path d="M30.9677 11.2211H29.0322V13.1566H30.9677V11.2211Z" fill="#00093C"/>
<path d="M38.7098 11.2211H32.9033V13.1566H38.7098V11.2211Z" fill="#00093C"/>
<path d="M38.7096 15.092H29.0322V17.0275H38.7096V15.092Z" fill="#00093C"/>
<path d="M11.6129 47.0276H3.87097V52.834H11.6129V47.0276ZM9.67742 50.8986H5.80646V48.9631H9.67742V50.8986Z" fill="#00093C"/>
<path d="M19.3549 47.0276H13.5485V48.9631H19.3549V47.0276Z" fill="#00093C"/>
<path d="M19.3549 50.8984H13.5485V52.8339H19.3549V50.8984Z" fill="#00093C"/>
<path d="M19.3548 54.7694H3.87097V56.7049H19.3548V54.7694Z" fill="#00093C"/>
<path d="M57.0968 33.4791H41.6129C40.0161 33.4791 38.7097 34.7856 38.7097 36.3824V43.1566H34.8387V34.3017C36.5 33.8662 37.7419 32.3662 37.7419 30.5759C37.7419 28.7856 36.5 27.2695 34.8387 26.8501V20.8985H39.6774C41.2742 20.8985 42.5806 19.5921 42.5806 17.9953V13.1566H46.5323C47 15.8985 49.3871 17.9953 52.2581 17.9953C55.4677 17.9953 58.0645 15.3985 58.0645 12.1888C58.0645 11.1888 57.8064 10.2372 57.3548 9.41464L59.7097 7.0598L58.3387 5.68883L56.1452 7.88238C55.1129 6.9469 53.7419 6.36625 52.2581 6.36625C49.3871 6.36625 47 8.46302 46.5323 11.205H42.5806V6.36625C42.5806 4.76947 41.2742 3.46302 39.6774 3.46302H28.0645C26.4677 3.46302 25.1613 4.76947 25.1613 6.36625V11.205H23.2258V9.49528L20.6774 8.80173C20.5968 8.57593 20.5 8.36625 20.4032 8.14044L21.7097 5.85012L17.9355 2.07593L15.6452 3.38238C15.4194 3.2856 15.2097 3.18883 14.9839 3.10818L14.2903 0.575928H8.93548L8.24194 3.12432C8.01613 3.20496 7.80645 3.30173 7.58064 3.39851L5.29032 2.09206L1.51613 5.86625L2.82258 8.15657C2.72581 8.38238 2.62903 8.59205 2.54839 8.81786L0 9.51141V14.8662L2.54839 15.5598C2.62903 15.7856 2.72581 15.9953 2.82258 16.2211L1.51613 18.5114L5.29032 22.2856L7.58064 20.9792C7.80645 21.0759 8.01613 21.1727 8.24194 21.2533L8.93548 23.7856H10.6452V39.2695H2.90323C1.30645 39.2695 0 40.5759 0 42.1727V57.6566C0 59.2533 1.30645 60.5598 2.90323 60.5598H20.3226C21.9194 60.5598 23.2258 59.2533 23.2258 57.6566V42.1727C23.2258 40.5759 21.9194 39.2695 20.3226 39.2695H12.5806V23.7856H14.2903L14.9839 21.2372C15.2097 21.1566 15.4194 21.0598 15.6452 20.963L17.9355 22.2695L21.7258 18.4953L20.4194 16.205C20.5161 15.9792 20.6129 15.7695 20.6935 15.5437L23.2258 14.8501V13.1404H25.1613V17.9792C25.1613 19.5759 26.4677 20.8824 28.0645 20.8824H32.9032V26.834C31.2419 27.2695 30 28.7695 30 30.5598C30 32.3662 31.2419 33.8662 32.9032 34.2856V45.0759H38.7097V51.8501C38.7097 53.4469 40.0161 54.7533 41.6129 54.7533H57.0968C58.6935 54.7533 60 53.4469 60 51.8501V36.3662C60 34.7695 58.6935 33.4791 57.0968 33.4791ZM52.2581 8.31786C53.2258 8.31786 54.0968 8.68883 54.7742 9.26947L52.2581 11.7856L51 10.5275L49.629 11.8985L52.2419 14.5114L55.871 10.8824C56.0161 11.2856 56.1129 11.7211 56.1129 12.1727C56.1129 14.3017 54.371 16.0437 52.2419 16.0437C50.1129 16.0437 48.371 14.3017 48.371 12.1727C48.371 10.0437 50.129 8.31786 52.2581 8.31786ZM20.3226 58.6404H2.90323C2.37097 58.6404 1.93548 58.205 1.93548 57.6727V45.0921H21.2903V57.6727C21.2903 58.205 20.8548 58.6404 20.3226 58.6404ZM21.2903 42.1888V43.1566H1.93548V42.1888C1.93548 41.6566 2.37097 41.2211 2.90323 41.2211H20.3226C20.8548 41.2211 21.2903 41.6566 21.2903 42.1888ZM21.2903 13.3824L19.1613 13.963L19 14.463C18.8548 14.9146 18.6774 15.3501 18.4516 15.7856L18.2097 16.2533L19.3065 18.1727L17.6129 19.8824L15.6935 18.7856L15.2258 19.0275C14.7903 19.2533 14.3387 19.4469 13.9032 19.5759L13.4032 19.7372L12.8226 21.8501H10.4355L9.85484 19.7211L9.35484 19.5598C8.90323 19.4146 8.46774 19.2372 8.03226 19.0114L7.56451 18.7695L5.64516 19.8662L3.95161 18.1727L5.04838 16.2533L4.80645 15.7856C4.58064 15.3501 4.3871 14.8985 4.25806 14.463L4.09677 13.963L1.98387 13.3824V10.9953L4.1129 10.4146L4.27419 9.91464C4.41935 9.46302 4.59677 9.02754 4.82258 8.59206L5.06451 8.12431L3.96774 6.20496L5.66129 4.51141L7.58064 5.60818L8.04839 5.36625C8.48387 5.14044 8.93548 4.9469 9.37097 4.81786L9.87097 4.65657L10.4516 2.52754H12.8387L13.4194 4.65657L13.9194 4.81786C14.371 4.96302 14.8065 5.14044 15.2419 5.36625L15.7097 5.60818L17.629 4.51141L19.3226 6.20496L18.2258 8.12431L18.4677 8.59206C18.6935 9.02754 18.8871 9.47915 19.0161 9.91464L19.1774 10.4146L21.3065 10.9953L21.2903 13.3824ZM28.0645 5.41464H39.6774C40.2097 5.41464 40.6452 5.85012 40.6452 6.38238V7.35012H27.0968V6.38238C27.0968 5.85012 27.5323 5.41464 28.0645 5.41464ZM27.0968 17.9953V9.2856H40.6452V17.9953C40.6452 18.5275 40.2097 18.963 39.6774 18.963H28.0645C27.5323 18.963 27.0968 18.5275 27.0968 17.9953ZM31.9355 30.5759C31.9355 29.5114 32.8065 28.6404 33.871 28.6404C34.9355 28.6404 35.8065 29.5114 35.8065 30.5759C35.8065 31.6404 34.9355 32.5114 33.871 32.5114C32.8065 32.5114 31.9355 31.6404 31.9355 30.5759ZM41.6129 35.4146H57.0968C57.629 35.4146 58.0645 35.8501 58.0645 36.3824V37.3501H40.6452V36.3824C40.6452 35.8501 41.0806 35.4146 41.6129 35.4146ZM57.0968 52.834H41.6129C41.0806 52.834 40.6452 52.3985 40.6452 51.8662V39.2856H58.0645V51.8662C58.0645 52.3985 57.629 52.834 57.0968 52.834Z" fill="#00093C"/>
<path d="M48.387 41.2211H42.5806V47.0275H48.387V41.2211ZM46.4515 45.092H44.5161V43.1566H46.4515V45.092Z" fill="#00093C"/>
<path d="M56.129 41.2211H50.3225V43.1566H56.129V41.2211Z" fill="#00093C"/>
<path d="M56.129 45.0919H50.3225V47.0274H56.129V45.0919Z" fill="#00093C"/>
<path d="M56.129 48.963H42.5806V50.8985H56.129V48.963Z" fill="#00093C"/>
</svg>
