<svg width="41" height="57" viewBox="0 0 41 57" fill="none" xmlns="http://www.w3.org/2000/svg">
<path d="M3.34283 56.0871H25.6853C26.1345 56.0871 26.4984 55.7232 26.4984 55.274C26.4984 54.8248 26.1345 54.4609 25.6853 54.4609H9.06083V47.0109C9.06083 46.5617 8.69677 46.1978 8.24772 46.1978C7.79867 46.1978 7.43461 46.5617 7.43461 47.0109V54.461H3.34261C2.06777 54.461 1.4691 53.9142 1.65362 52.5413C3.87861 41.6691 3.88338 40.7919 4.24722 39.9009C4.31064 39.8121 4.66126 38.5575 6.38028 37.8278C6.55797 37.755 6.44717 37.8038 7.05841 37.6175C7.09614 37.6067 6.90977 37.67 9.82992 36.6561L11.7776 40.2515C11.9915 40.6464 12.4848 40.7933 12.8798 40.5792C13.2747 40.3653 13.4214 39.8718 13.2075 39.4769L11.3865 36.1153L12.6318 35.6827C13.2321 36.791 18.5471 46.6021 19.1248 47.6685C19.4814 48.329 20.3893 48.3619 20.8075 47.7852C20.8833 47.6808 20.4504 48.4579 27.3625 35.6791L28.6075 36.1115L22.0251 48.2874C21.1574 49.8925 18.8504 49.8926 17.9816 48.2892L15.0151 42.8129C14.801 42.4181 14.3078 42.2711 13.9128 42.4853C13.518 42.6993 13.3713 43.1927 13.5852 43.5876L16.5518 49.0639C18.0357 51.8026 21.9748 51.8001 23.4557 49.0609L30.1638 36.6522C33.0775 37.6638 32.9066 37.606 32.9443 37.6169C33.5175 37.7915 33.4538 37.7579 33.6226 37.827C34.2443 38.0918 34.6154 38.3974 34.6046 38.3894C35.2422 38.9036 35.6818 39.4977 35.9167 40.3725C35.9552 40.5113 38.3691 52.4794 38.3789 52.8832C38.4031 53.9041 37.9623 54.461 36.6626 54.461H32.5704V47.0109C32.5704 46.5617 32.2065 46.1978 31.7573 46.1978C31.3081 46.1978 30.9442 46.5617 30.9442 47.0109V54.461H29.4796C29.0305 54.461 28.6665 54.8249 28.6665 55.2741C28.6665 55.7233 29.0305 56.0872 29.4796 56.0872H36.6624C38.5887 56.0872 39.7987 55.1087 39.9822 53.4033C40.0265 52.9964 40.0005 52.4967 39.9509 52.2474C37.4779 39.8295 37.5848 40.3582 37.5727 40.3072C37.2484 38.7375 36.3366 37.4343 34.8585 36.6178C34.1671 36.235 33.7685 36.1754 33.4199 36.0615L27.3443 33.9513L25.3194 32.5625V30.9872C28.2804 29.2282 30.1656 26.1987 30.5102 22.9205C32.9846 23.0352 34.7091 20.6703 33.6717 18.5998V11.9714C33.6717 7.17797 31.0647 5.51033 30.2682 5.11289C26.3709 0.460603 19.0937 -0.732606 13.5769 2.09821L13.5663 2.10352C13.4717 2.15913 12.3346 2.68516 10.9347 3.85582C10.595 4.14962 10.5578 4.66307 10.8515 5.00274C11.1457 5.34283 11.6593 5.37915 11.9984 5.08589C17.4014 0.549179 25.4208 1.71496 29.1281 6.28626C29.2194 6.39868 29.3305 6.48162 29.4662 6.53236C29.5716 6.57464 32.0456 7.61585 32.0456 11.9715V17.1032C31.5945 16.9122 31.0999 16.8143 30.5728 16.829V14.1695C30.5728 13.4948 30.0645 12.9373 29.3906 12.8722C28.0243 12.7403 27.2585 11.85 26.8567 11.1265C26.3539 10.2209 25.1536 10.004 24.3665 10.6766C20.741 13.7756 16.5666 13.9331 13.7031 13.5201C11.5402 13.2079 9.52842 14.6811 9.17835 16.8301C8.65189 16.8073 8.13171 16.9006 7.6535 17.1031C7.65664 14.3037 7.33368 11.2579 9.62317 7.76774C9.86884 7.39176 9.76314 6.88796 9.38715 6.64229C9.01128 6.39651 8.50737 6.502 8.2617 6.8782C5.14587 11.6526 6.2607 15.9306 6.02717 18.5999C4.99029 20.6696 6.71257 23.0354 9.18854 22.9205C9.59271 26.7815 11.9711 29.0026 12.0276 29.0993L12.0277 29.0994C12.4499 29.5041 13.208 30.3495 14.6858 31.164V32.5624L12.6612 33.951C4.73726 36.7036 5.54147 36.3695 4.89771 36.7629C3.68097 37.5123 2.83762 38.6586 2.48614 40.07C2.41686 40.3489 2.53189 39.8218 0.0542908 52.2473C0.00442008 52.4983 -0.0218162 52.9875 0.022959 53.4024C0.206396 55.1086 1.41652 56.0871 3.34283 56.0871ZM21.408 32.3749C21.8653 32.3084 22.3575 32.1995 22.6455 32.1182C22.7139 32.096 23.1065 32.0021 23.6931 31.7763V32.6776L20.0025 36.7842L16.3118 32.6775V31.8889C18.009 32.4783 19.7691 32.6139 21.408 32.3749ZM23.4394 39.5161C23.2281 39.3609 21.4617 38.0635 21.2072 37.8765L24.6323 34.0651L25.91 34.9462C25.0895 36.4638 23.9719 38.531 23.4394 39.5161ZM22.1435 41.9132L21.9425 41.295L22.2508 40.6604L22.6587 40.96L22.1435 41.9132ZM17.3419 40.9635L17.7543 40.6607L18.0625 41.2954L17.8596 41.9193L17.3419 40.9635ZM18.7979 37.8765C18.6001 38.0217 16.7599 39.3733 16.5656 39.5161L14.0952 34.9462L15.3728 34.0651L18.7979 37.8765ZM19.0867 39.6819L20.0025 39.0093L20.9182 39.6819L20.5589 40.4218H19.4461L19.0867 39.6819ZM20.0022 45.8742L18.9283 43.8918L19.5278 42.048H20.4775L21.076 43.8885C20.7354 44.5177 20.4194 45.1022 20.0022 45.8742ZM32.3493 19.8756C32.3493 20.7218 31.501 21.3447 30.5724 21.2956V18.4556C31.51 18.406 32.3493 19.0376 32.3493 19.8756ZM29.2341 14.4906C29.2336 14.4906 29.2331 14.4906 29.2327 14.4905C29.2331 14.4906 29.2335 14.4906 29.2341 14.4906ZM13.4705 15.1294C16.6666 15.5907 21.3347 15.4072 25.4226 11.9125L25.4347 11.9157C26.22 13.3299 27.4592 14.2227 28.9462 14.4543V17.3337L28.0184 17.8813C27.6364 17.3308 27.0006 16.9689 26.2814 16.9689H22.5605C21.6829 16.9689 20.929 17.5067 20.6097 18.2699H19.0888C18.7696 17.5067 18.0155 16.9689 17.1379 16.9689H13.417C12.6977 16.9689 12.062 17.3308 11.68 17.8813L10.7564 17.3361C10.8364 15.9461 12.0929 14.9303 13.4705 15.1294ZM22.0727 19.083C22.0727 18.8185 22.2962 18.5951 22.5606 18.5951H26.2815C26.5459 18.5951 26.7694 18.8185 26.7694 19.083V20.7022C26.7694 21.4076 26.1955 21.9814 25.4902 21.9814H23.3517C22.6465 21.9814 22.0726 21.4076 22.0726 20.7022V19.083H22.0727ZM17.6257 19.083V20.7022C17.6257 21.4076 17.052 21.9814 16.3466 21.9814H14.2081C13.5028 21.9814 12.9291 21.4076 12.9291 20.7022V19.083C12.9291 18.8185 13.1525 18.5951 13.4169 18.5951H17.1378C17.4022 18.5951 17.6257 18.8185 17.6257 19.083ZM7.34907 19.8756C7.34907 19.0294 8.19741 18.4065 9.12598 18.4556V21.2956C8.18852 21.3451 7.34907 20.7134 7.34907 19.8756ZM12.945 27.6877C10.3134 24.6204 10.8207 21.6422 10.7522 19.2222L11.3031 19.5473V20.7023C11.3031 22.3043 12.6063 23.6076 14.2082 23.6076H16.3467C17.9486 23.6076 19.2519 22.3044 19.2519 20.7023V19.8961H20.4467V20.7023C20.4467 22.3043 21.75 23.6076 23.3519 23.6076H25.4904C27.0923 23.6076 28.3957 22.3044 28.3957 20.7023V19.5473L28.9465 19.2222V21.7646C28.9465 26.6007 25.1189 30.8027 19.8495 30.8607C19.8385 30.8606 19.729 30.8598 19.7399 30.8599C18.3343 30.8457 17.2541 30.4855 17.3634 30.5161C15.7679 30.0735 14.2463 29.1599 12.945 27.6877Z" fill="#00093C"/>
</svg>
