<svg width="60" height="60" viewBox="0 0 60 60" fill="none" xmlns="http://www.w3.org/2000/svg">
<path d="M11.6131 5.80637C8.40341 5.80637 5.80664 8.40314 5.80664 11.6128C5.80664 14.8225 8.40341 17.4193 11.6131 17.4193C14.8228 17.4193 17.4195 14.8225 17.4195 11.6128C17.4195 8.40314 14.8228 5.80637 11.6131 5.80637ZM11.6131 15.4838C9.48406 15.4838 7.74212 13.7419 7.74212 11.6128C7.74212 9.48379 9.48406 7.74185 11.6131 7.74185C13.7421 7.74185 15.4841 9.48379 15.4841 11.6128C15.4841 13.7419 13.7421 15.4838 11.6131 15.4838Z" fill="#00093C"/>
<path d="M30.9677 10.6451H29.0322V12.5806H30.9677V10.6451Z" fill="#00093C"/>
<path d="M38.7098 10.6451H32.9033V12.5806H38.7098V10.6451Z" fill="#00093C"/>
<path d="M38.7096 14.5161H29.0322V16.4515H38.7096V14.5161Z" fill="#00093C"/>
<path d="M11.613 46.4516H3.87109V52.2581H11.613V46.4516ZM9.67754 50.3226H5.80658V48.3871H9.67754V50.3226Z" fill="#00093C"/>
<path d="M19.3553 46.4516H13.5488V48.3871H19.3553V46.4516Z" fill="#00093C"/>
<path d="M19.3553 50.3225H13.5488V52.258H19.3553V50.3225Z" fill="#00093C"/>
<path d="M19.355 54.1935H3.87109V56.1289H19.355V54.1935Z" fill="#00093C"/>
<path d="M57.0968 32.9032H41.6129C40.0161 32.9032 38.7097 34.2097 38.7097 35.8064V42.5806H34.8387V33.7258C36.5 33.2903 37.7419 31.7903 37.7419 30C37.7419 28.2097 36.5 26.6935 34.8387 26.2742V20.3226H39.6774C41.2742 20.3226 42.5806 19.0161 42.5806 17.4194V12.5806H46.5323C47 15.3226 49.3871 17.4194 52.2581 17.4194C55.4677 17.4194 58.0645 14.8226 58.0645 11.6129C58.0645 10.6129 57.8064 9.66129 57.3548 8.83871L59.7097 6.48387L58.3387 5.1129L56.1452 7.30645C55.1129 6.37097 53.7419 5.79032 52.2581 5.79032C49.3871 5.79032 47 7.88709 46.5323 10.629H42.5806V5.79032C42.5806 4.19355 41.2742 2.8871 39.6774 2.8871H28.0645C26.4677 2.8871 25.1613 4.19355 25.1613 5.79032V10.629H23.2258V8.91935L20.6774 8.22581C20.5968 8 20.5 7.79032 20.4032 7.56451L21.7097 5.27419L17.9355 1.5L15.6452 2.80645C15.4194 2.70968 15.2097 2.6129 14.9839 2.53226L14.2903 0H8.93548L8.24194 2.54839C8.01613 2.62903 7.80645 2.72581 7.58065 2.82258L5.29032 1.51613L1.51613 5.29032L2.82258 7.58064C2.72581 7.80645 2.62903 8.01613 2.54839 8.24193L0 8.93548V14.2903L2.54839 14.9839C2.62903 15.2097 2.72581 15.4194 2.82258 15.6452L1.51613 17.9355L5.29032 21.7097L7.58065 20.4032C7.80645 20.5 8.01613 20.5968 8.24194 20.6774L8.93548 23.2097H10.6452V38.6935H2.90323C1.30645 38.6935 0 40 0 41.5968V57.0806C0 58.6774 1.30645 59.9839 2.90323 59.9839H20.3226C21.9194 59.9839 23.2258 58.6774 23.2258 57.0806V41.5968C23.2258 40 21.9194 38.6935 20.3226 38.6935H12.5806V23.2097H14.2903L14.9839 20.6613C15.2097 20.5806 15.4194 20.4839 15.6452 20.3871L17.9355 21.6935L21.7258 17.9194L20.4194 15.629C20.5161 15.4032 20.6129 15.1935 20.6935 14.9677L23.2258 14.2742V12.5645H25.1613V17.4032C25.1613 19 26.4677 20.3064 28.0645 20.3064H32.9032V26.2581C31.2419 26.6935 30 28.1935 30 29.9839C30 31.7903 31.2419 33.2903 32.9032 33.7097V44.5H38.7097V51.2742C38.7097 52.871 40.0161 54.1774 41.6129 54.1774H57.0968C58.6935 54.1774 60 52.871 60 51.2742V35.7903C60 34.1935 58.6935 32.9032 57.0968 32.9032ZM52.2581 7.74193C53.2258 7.74193 54.0968 8.1129 54.7742 8.69355L52.2581 11.2097L51 9.95161L49.629 11.3226L52.2419 13.9355L55.871 10.3064C56.0161 10.7097 56.1129 11.1452 56.1129 11.5968C56.1129 13.7258 54.371 15.4677 52.2419 15.4677C50.1129 15.4677 48.371 13.7258 48.371 11.5968C48.371 9.46774 50.129 7.74193 52.2581 7.74193ZM20.3226 58.0645H2.90323C2.37097 58.0645 1.93548 57.629 1.93548 57.0968V44.5161H21.2903V57.0968C21.2903 57.629 20.8548 58.0645 20.3226 58.0645ZM21.2903 41.6129V42.5806H1.93548V41.6129C1.93548 41.0806 2.37097 40.6452 2.90323 40.6452H20.3226C20.8548 40.6452 21.2903 41.0806 21.2903 41.6129ZM21.2903 12.8064L19.1613 13.3871L19 13.8871C18.8548 14.3387 18.6774 14.7742 18.4516 15.2097L18.2097 15.6774L19.3065 17.5968L17.6129 19.3064L15.6935 18.2097L15.2258 18.4516C14.7903 18.6774 14.3387 18.871 13.9032 19L13.4032 19.1613L12.8226 21.2742H10.4355L9.85484 19.1452L9.35484 18.9839C8.90323 18.8387 8.46774 18.6613 8.03226 18.4355L7.56452 18.1935L5.64516 19.2903L3.95161 17.5968L5.04839 15.6774L4.80645 15.2097C4.58064 14.7742 4.3871 14.3226 4.25806 13.8871L4.09677 13.3871L1.98387 12.8064V10.4194L4.1129 9.83871L4.27419 9.33871C4.41935 8.88709 4.59677 8.45161 4.82258 8.01613L5.06452 7.54839L3.96774 5.62903L5.66129 3.93548L7.58065 5.03226L8.04839 4.79032C8.48387 4.56452 8.93548 4.37097 9.37097 4.24194L9.87097 4.08065L10.4516 1.95161H12.8387L13.4194 4.08065L13.9194 4.24194C14.371 4.3871 14.8065 4.56452 15.2419 4.79032L15.7097 5.03226L17.629 3.93548L19.3226 5.62903L18.2258 7.54839L18.4677 8.01613C18.6935 8.45161 18.8871 8.90322 19.0161 9.33871L19.1774 9.83871L21.3065 10.4194L21.2903 12.8064ZM28.0645 4.83871H39.6774C40.2097 4.83871 40.6452 5.27419 40.6452 5.80645V6.77419H27.0968V5.80645C27.0968 5.27419 27.5323 4.83871 28.0645 4.83871ZM27.0968 17.4194V8.70968H40.6452V17.4194C40.6452 17.9516 40.2097 18.3871 39.6774 18.3871H28.0645C27.5323 18.3871 27.0968 17.9516 27.0968 17.4194ZM31.9355 30C31.9355 28.9355 32.8064 28.0645 33.871 28.0645C34.9355 28.0645 35.8064 28.9355 35.8064 30C35.8064 31.0645 34.9355 31.9355 33.871 31.9355C32.8064 31.9355 31.9355 31.0645 31.9355 30ZM41.6129 34.8387H57.0968C57.629 34.8387 58.0645 35.2742 58.0645 35.8064V36.7742H40.6452V35.8064C40.6452 35.2742 41.0806 34.8387 41.6129 34.8387ZM57.0968 52.2581H41.6129C41.0806 52.2581 40.6452 51.8226 40.6452 51.2903V38.7097H58.0645V51.2903C58.0645 51.8226 57.629 52.2581 57.0968 52.2581Z" fill="#00093C"/>
<path d="M48.3875 40.6451H42.5811V46.4516H48.3875V40.6451ZM46.452 44.5161H44.5165V42.5806H46.452V44.5161Z" fill="#00093C"/>
<path d="M56.1287 40.6451H50.3223V42.5806H56.1287V40.6451Z" fill="#00093C"/>
<path d="M56.1287 44.516H50.3223V46.4515H56.1287V44.516Z" fill="#00093C"/>
<path d="M56.1294 48.3871H42.5811V50.3226H56.1294V48.3871Z" fill="#00093C"/>
</svg>
