<svg width="41" height="56" viewBox="0 0 41 56" fill="none" xmlns="http://www.w3.org/2000/svg">
<path d="M3.34283 55.508H25.6853C26.1345 55.508 26.4984 55.1441 26.4984 54.6949C26.4984 54.2457 26.1345 53.8818 25.6853 53.8818H9.06083V46.4318C9.06083 45.9826 8.69677 45.6186 8.24772 45.6186C7.79867 45.6186 7.43461 45.9826 7.43461 46.4318V53.8819H3.34261C2.06777 53.8819 1.4691 53.3351 1.65362 51.9622C3.87861 41.09 3.88338 40.2128 4.24722 39.3218C4.31064 39.233 4.66126 37.9784 6.38028 37.2487C6.55797 37.1759 6.44717 37.2247 7.05841 37.0384C7.09614 37.0276 6.90977 37.0909 9.82992 36.077L11.7776 39.6724C11.9915 40.0673 12.4848 40.2142 12.8798 40.0001C13.2747 39.7862 13.4214 39.2927 13.2075 38.8978L11.3865 35.5362L12.6318 35.1036C13.2321 36.2118 18.5471 46.023 19.1248 47.0894C19.4814 47.7499 20.3893 47.7828 20.8075 47.2061C20.8833 47.1017 20.4504 47.8788 27.3625 35.1L28.6075 35.5324L22.0251 47.7083C21.1574 49.3134 18.8504 49.3135 17.9816 47.7101L15.0151 42.2338C14.801 41.839 14.3078 41.692 13.9128 41.9062C13.518 42.1202 13.3713 42.6136 13.5852 43.0085L16.5518 48.4848C18.0357 51.2235 21.9748 51.221 23.4557 48.4818L30.1638 36.0731C33.0775 37.0847 32.9066 37.0269 32.9443 37.0378C33.5175 37.2124 33.4538 37.1788 33.6226 37.2479C34.2443 37.5127 34.6154 37.8183 34.6046 37.8103C35.2422 38.3245 35.6818 38.9186 35.9167 39.7934C35.9552 39.9322 38.3691 51.9003 38.3789 52.3041C38.4031 53.325 37.9623 53.8819 36.6626 53.8819H32.5704V46.4318C32.5704 45.9826 32.2065 45.6186 31.7573 45.6186C31.3081 45.6186 30.9442 45.9826 30.9442 46.4318V53.8819H29.4796C29.0305 53.8819 28.6665 54.2458 28.6665 54.695C28.6665 55.1442 29.0305 55.5081 29.4796 55.5081H36.6624C38.5887 55.5081 39.7987 54.5296 39.9822 52.8242C40.0265 52.4173 40.0005 51.9176 39.9509 51.6683C37.4779 39.2504 37.5848 39.7791 37.5727 39.7281C37.2484 38.1584 36.3366 36.8552 34.8585 36.0387C34.1671 35.6559 33.7685 35.5963 33.4199 35.4824L27.3443 33.3722L25.3194 31.9834V30.4081C28.2804 28.6491 30.1656 25.6196 30.5102 22.3414C32.9846 22.4561 34.7091 20.0912 33.6717 18.0207V11.3923C33.6717 6.59886 31.0647 4.93123 30.2682 4.53378C26.3709 -0.118498 19.0937 -1.31171 13.5769 1.5191L13.5663 1.52442C13.4717 1.58003 12.3346 2.10606 10.9347 3.27672C10.595 3.57052 10.5578 4.08397 10.8515 4.42364C11.1457 4.76373 11.6593 4.80005 11.9984 4.50679C17.4014 -0.0299229 25.4208 1.13586 29.1281 5.70715C29.2194 5.81958 29.3305 5.90252 29.4662 5.95326C29.5716 5.99554 32.0456 7.03675 32.0456 11.3924V16.5241C31.5945 16.3331 31.0999 16.2352 30.5728 16.2499V13.5904C30.5728 12.9157 30.0645 12.3582 29.3906 12.2931C28.0243 12.1612 27.2585 11.2709 26.8567 10.5474C26.3539 9.64184 25.1536 9.42491 24.3665 10.0975C20.741 13.1965 16.5666 13.354 13.7031 12.941C11.5402 12.6288 9.52842 14.102 9.17835 16.251C8.65189 16.2282 8.13171 16.3215 7.6535 16.524C7.65664 13.7246 7.33368 10.6788 9.62317 7.18864C9.86884 6.81266 9.76314 6.30886 9.38715 6.06319C9.01128 5.81741 8.50737 5.9229 8.2617 6.2991C5.14587 11.0735 6.2607 15.3515 6.02717 18.0208C4.99029 20.0905 6.71257 22.4563 9.18854 22.3414C9.59271 26.2024 11.9711 28.4235 12.0276 28.5202L12.0277 28.5203C12.4499 28.925 13.208 29.7704 14.6858 30.5849V31.9832L12.6612 33.3719C4.73726 36.1245 5.54147 35.7904 4.89771 36.1838C3.68097 36.9332 2.83762 38.0795 2.48614 39.4908C2.41686 39.7698 2.53189 39.2427 0.0542908 51.6682C0.00442008 51.9192 -0.0218162 52.4084 0.022959 52.8233C0.206396 54.5295 1.41652 55.508 3.34283 55.508ZM21.408 31.7958C21.8653 31.7293 22.3575 31.6204 22.6455 31.5391C22.7139 31.5169 23.1065 31.423 23.6931 31.1972V32.0985L20.0025 36.2051L16.3118 32.0984V31.3098C18.009 31.8992 19.7691 32.0348 21.408 31.7958ZM23.4394 38.937C23.2281 38.7818 21.4617 37.4844 21.2072 37.2974L24.6323 33.486L25.91 34.3671C25.0895 35.8847 23.9719 37.9519 23.4394 38.937ZM22.1435 41.3341L21.9425 40.7159L22.2508 40.0813L22.6587 40.3809L22.1435 41.3341ZM17.3419 40.3844L17.7543 40.0816L18.0625 40.7163L17.8596 41.3402L17.3419 40.3844ZM18.7979 37.2974C18.6001 37.4426 16.7599 38.7942 16.5656 38.937L14.0952 34.3671L15.3728 33.486L18.7979 37.2974ZM19.0867 39.1028L20.0025 38.4302L20.9182 39.1028L20.5589 39.8427H19.4461L19.0867 39.1028ZM20.0022 45.2951L18.9283 43.3127L19.5278 41.4689H20.4775L21.076 43.3094C20.7354 43.9386 20.4194 44.5231 20.0022 45.2951ZM32.3493 19.2965C32.3493 20.1427 31.501 20.7656 30.5724 20.7165V17.8765C31.51 17.8269 32.3493 18.4585 32.3493 19.2965ZM29.2341 13.9115C29.2336 13.9115 29.2331 13.9115 29.2327 13.9114C29.2331 13.9115 29.2335 13.9115 29.2341 13.9115ZM13.4705 14.5503C16.6666 15.0116 21.3347 14.8281 25.4226 11.3334L25.4347 11.3366C26.22 12.7508 27.4592 13.6436 28.9462 13.8752V16.7546L28.0184 17.3022C27.6364 16.7517 27.0006 16.3898 26.2814 16.3898H22.5605C21.6829 16.3898 20.929 16.9276 20.6097 17.6908H19.0888C18.7696 16.9276 18.0155 16.3898 17.1379 16.3898H13.417C12.6977 16.3898 12.062 16.7517 11.68 17.3022L10.7564 16.757C10.8364 15.367 12.0929 14.3512 13.4705 14.5503ZM22.0727 18.5039C22.0727 18.2394 22.2962 18.016 22.5606 18.016H26.2815C26.5459 18.016 26.7694 18.2394 26.7694 18.5039V20.1231C26.7694 20.8285 26.1955 21.4023 25.4902 21.4023H23.3517C22.6465 21.4023 22.0726 20.8285 22.0726 20.1231V18.5039H22.0727ZM17.6257 18.5039V20.1231C17.6257 20.8285 17.052 21.4023 16.3466 21.4023H14.2081C13.5028 21.4023 12.9291 20.8285 12.9291 20.1231V18.5039C12.9291 18.2394 13.1525 18.016 13.4169 18.016H17.1378C17.4022 18.016 17.6257 18.2394 17.6257 18.5039ZM7.34907 19.2965C7.34907 18.4503 8.19741 17.8274 9.12598 17.8765V20.7165C8.18852 20.766 7.34907 20.1343 7.34907 19.2965ZM12.945 27.1086C10.3134 24.0413 10.8207 21.0631 10.7522 18.6431L11.3031 18.9682V20.1232C11.3031 21.7252 12.6063 23.0285 14.2082 23.0285H16.3467C17.9486 23.0285 19.2519 21.7253 19.2519 20.1232V19.317H20.4467V20.1232C20.4467 21.7252 21.75 23.0285 23.3519 23.0285H25.4904C27.0923 23.0285 28.3957 21.7253 28.3957 20.1232V18.9682L28.9465 18.6431V21.1855C28.9465 26.0216 25.1189 30.2236 19.8495 30.2816C19.8385 30.2815 19.729 30.2807 19.7399 30.2808C18.3343 30.2666 17.2541 29.9064 17.3634 29.937C15.7679 29.4944 14.2463 28.5808 12.945 27.1086Z" fill="#00093C"/>
</svg>
