<svg width="50" height="50" viewBox="0 0 50 50" fill="none" xmlns="http://www.w3.org/2000/svg">
<path d="M28.4229 23.7145C28.5694 24.0075 28.8625 24.1662 29.1677 24.1662C29.2898 24.1662 29.4241 24.1418 29.5461 24.0807C29.595 24.0563 34.5029 21.5657 36.9202 20.7966C37.3598 20.6623 37.6039 20.1861 37.4574 19.7466C37.3231 19.3071 36.8592 19.0629 36.4075 19.1972C33.8558 20.003 28.9845 22.4814 28.777 22.579C28.3863 22.811 28.2154 23.3116 28.4229 23.7145Z" fill="#00093C"/>
<path d="M29.1662 14.1794C29.2883 14.1794 29.4226 14.155 29.5447 14.094C29.5935 14.0695 34.5014 11.579 36.9188 10.8098C37.3583 10.6755 37.6024 10.1994 37.4559 9.75985C37.3216 9.32034 36.8577 9.07616 36.406 9.21046C33.8544 10.0162 28.9831 12.4946 28.7755 12.5923C28.3604 12.7998 28.2017 13.3004 28.4092 13.7155C28.5802 14.0085 28.8732 14.1794 29.1662 14.1794Z" fill="#00093C"/>
<path d="M49.1769 12.5068C48.713 12.5068 48.3467 12.8853 48.3467 13.337V45.8368C48.3467 47.2163 47.2235 48.3396 45.8439 48.3396H25.8338V46.4228C27.0546 45.9955 30.2167 45.0066 33.3299 45.0066C40.5942 45.0066 45.5143 46.6181 45.5631 46.6303C45.8195 46.7158 46.0881 46.667 46.3079 46.5204C46.5276 46.3617 46.6497 46.1176 46.6497 45.849V9.17383C46.6497 8.78314 46.3811 8.4413 46.0026 8.35584C46.0026 8.35584 45.3434 8.20933 44.2324 8.00179C43.7806 7.91632 43.3411 8.22154 43.2679 8.67327C43.1824 9.12499 43.4876 9.56451 43.9394 9.64997C44.3667 9.72322 44.7207 9.79647 45.0015 9.85752V44.738C43.1092 44.2374 38.9216 43.3462 33.3299 43.3462C29.7039 43.3462 26.1268 44.5426 25.028 44.9455C24.0513 44.506 21.0845 43.3462 17.4952 43.3462C11.757 43.3462 7.02004 44.2985 4.99338 44.7746V9.82089C6.65378 9.40579 11.5739 8.34363 17.4952 8.34363C20.5351 8.34363 23.1356 9.29591 24.1611 9.72322V42.516C24.1611 42.8212 24.3199 43.0898 24.5885 43.2363C24.8448 43.3828 25.1745 43.3828 25.4309 43.2241C25.5163 43.1752 33.7694 38.2429 41.0947 35.8011C41.4366 35.6913 41.6685 35.3738 41.6685 35.0076V0.835238C41.6685 0.566645 41.5342 0.310261 41.3145 0.151547C41.0947 -0.00716685 40.8017 -0.0437935 40.5453 0.0538766C33.8793 2.55667 27.1279 6.75649 27.0668 6.79312C26.6762 7.03729 26.5541 7.55006 26.7982 7.94074C27.0424 8.33142 27.5552 8.45351 27.9459 8.20933C28.0069 8.17271 33.8793 4.52229 40.0081 2.05611V34.4093C34.3188 36.3872 28.3732 39.6103 25.8338 41.0631V9.17383C25.8338 8.8564 25.6506 8.5756 25.3698 8.42909C25.2233 8.35584 21.8049 6.67103 17.4952 6.67103C9.96235 6.67103 4.1754 8.2948 3.93122 8.36805C3.57717 8.46572 3.33299 8.79535 3.33299 9.17383V45.849C3.33299 46.1054 3.45508 46.3617 3.66263 46.5082C3.80914 46.6181 3.98006 46.6792 4.16319 46.6792C4.23644 46.6792 4.3219 46.667 4.39516 46.6425C4.4562 46.6303 10.2187 45.0066 17.5074 45.0066C20.5596 45.0066 23.16 45.9588 24.1734 46.3862V48.3396H4.16319C2.7836 48.3396 1.66039 47.2163 1.66039 45.8368V13.337C1.66039 12.8731 1.28192 12.5068 0.830197 12.5068C0.366263 12.5068 0 12.8853 0 13.337V45.8368C0 48.132 1.86794 49.9999 4.16319 49.9999H45.8317C48.127 49.9999 49.9949 48.132 49.9949 45.8368V13.337C50.0071 12.8853 49.6286 12.5068 49.1769 12.5068Z" fill="#00093C"/>
<path d="M28.4229 18.7211C28.5694 19.0141 28.8625 19.1728 29.1677 19.1728C29.2898 19.1728 29.4241 19.1484 29.5461 19.0873C29.595 19.0629 34.5029 16.5723 36.9202 15.8032C37.3598 15.6689 37.6039 15.1927 37.4574 14.7532C37.3231 14.3137 36.8592 14.0695 36.4075 14.2038C33.8558 15.0096 28.9845 17.488 28.777 17.5856C28.3863 17.8054 28.2154 18.306 28.4229 18.7211Z" fill="#00093C"/>
<path d="M28.4229 28.7201C28.5694 29.0131 28.8625 29.1718 29.1677 29.1718C29.2898 29.1718 29.4241 29.1474 29.5461 29.0863C29.595 29.0619 34.5029 26.5713 36.9202 25.8022C37.3598 25.6679 37.6039 25.1917 37.4574 24.7522C37.3231 24.3127 36.8592 24.0685 36.4075 24.2028C33.8558 25.0086 28.9845 27.487 28.777 27.5847C28.3863 27.8044 28.2154 28.305 28.4229 28.7201Z" fill="#00093C"/>
<path d="M20.1938 15.4736C15.0417 14.2649 9.19369 15.8032 8.94952 15.8643C8.51 15.9864 8.24141 16.4381 8.3635 16.8898C8.46117 17.2561 8.80301 17.5125 9.16928 17.5125C9.24253 17.5125 9.31578 17.5002 9.38903 17.488C9.45008 17.4758 15.0783 15.9864 19.8153 17.1096C20.267 17.2194 20.7066 16.9386 20.8164 16.4869C20.9263 16.023 20.6455 15.5713 20.1938 15.4736Z" fill="#00093C"/>
<path d="M20.1938 20.4669C15.0417 19.2582 9.19369 20.7965 8.94952 20.8698C8.51 20.9919 8.24141 21.4436 8.3635 21.8953C8.46117 22.2616 8.80301 22.518 9.16928 22.518C9.24253 22.518 9.31578 22.5058 9.38903 22.4936C9.45008 22.4814 15.0783 20.9919 19.8153 22.1151C20.267 22.225 20.7066 21.9442 20.8164 21.4924C20.9263 21.0285 20.6455 20.5768 20.1938 20.4669Z" fill="#00093C"/>
<path d="M28.4229 33.7257C28.5694 34.0187 28.8625 34.1774 29.1677 34.1774C29.2898 34.1774 29.4241 34.153 29.5461 34.0919C29.595 34.0675 34.5029 31.5769 36.9202 30.8078C37.3598 30.6735 37.6039 30.1973 37.4574 29.7578C37.3231 29.3183 36.8592 29.0741 36.4075 29.2084C33.8558 30.0142 28.9845 32.4926 28.777 32.5903C28.3863 32.81 28.2154 33.3106 28.4229 33.7257Z" fill="#00093C"/>
<path d="M20.1938 25.4725C15.0417 24.2638 9.19369 25.8021 8.94952 25.8754C8.51 25.9975 8.24141 26.4492 8.3635 26.9009C8.46117 27.2794 8.80301 27.5236 9.16928 27.5236C9.24253 27.5236 9.31578 27.5114 9.38903 27.4992C9.45008 27.487 15.0783 25.9975 19.8153 27.1207C20.267 27.2306 20.7066 26.9498 20.8164 26.498C20.9263 26.0219 20.6455 25.5824 20.1938 25.4725Z" fill="#00093C"/>
<path d="M20.1938 35.4715C15.0417 34.2628 9.19369 35.8011 8.94952 35.8622C8.51 35.9843 8.24141 36.436 8.3635 36.8877C8.46117 37.2662 8.80301 37.5104 9.16928 37.5104C9.24253 37.5104 9.31578 37.4982 9.38903 37.4859C9.45008 37.4737 15.0783 35.9843 19.8153 37.1075C20.267 37.2051 20.7066 36.9366 20.8164 36.4848C20.9263 36.0331 20.6455 35.5814 20.1938 35.4715Z" fill="#00093C"/>
<path d="M20.1938 30.4781C15.0417 29.2695 9.19369 30.8078 8.94952 30.881C8.51 31.0031 8.24141 31.4548 8.3635 31.9065C8.46117 32.285 8.80301 32.5292 9.16928 32.5292C9.24253 32.5292 9.31578 32.517 9.38903 32.5048C9.45008 32.4926 15.0783 31.0031 19.8153 32.1263C20.267 32.2362 20.7066 31.9554 20.8164 31.5037C20.9263 31.0275 20.6455 30.5758 20.1938 30.4781Z" fill="#00093C"/>
</svg>
