<svg width="57" height="47" viewBox="0 0 57 47" fill="none" xmlns="http://www.w3.org/2000/svg">
<path d="M53.618 3.06682H51.2623V0.829671C51.2623 0.370388 50.8919 0 50.4326 0H45.4101C44.9509 0 44.5805 0.370388 44.5805 0.829671V3.06682H17.0383V0.829671C17.0383 0.370388 16.6679 0 16.2086 0H11.1862C10.7269 0 10.3565 0.370388 10.3565 0.829671V3.06682H8.41564C6.38591 3.06682 4.72656 4.72617 4.72656 6.7559V27.0384C4.72656 27.4977 5.09695 27.8681 5.55624 27.8681C6.01552 27.8681 6.38591 27.4977 6.38591 27.0384V6.7559C6.38591 5.64473 7.28966 4.72617 8.41564 4.72617H53.6328C54.5217 4.72617 55.2477 5.45213 55.2477 6.34107V33.898C55.2477 34.787 54.5217 35.5129 53.6328 35.5129H51.8549V32.3572C51.8549 31.8979 51.4845 31.5276 51.0253 31.5276H42.0766C41.6174 31.5276 41.247 31.8979 41.247 32.3572V35.5129H27.8537L31.0094 34.6536C32.6391 34.2092 34.0762 33.2758 35.143 31.972L40.5062 25.4532C40.6099 25.3198 40.684 25.1569 40.6988 24.9939L41.1729 18.7713C41.2173 18.1639 40.8469 17.5565 40.284 17.3194C40.5358 17.1713 40.7136 16.9046 40.7136 16.5934C40.7136 16.1342 40.3432 15.7638 39.8839 15.7638H36.2393C35.78 15.7638 35.4096 16.1342 35.4096 16.5934C35.4096 17.0527 35.78 17.4231 36.2393 17.4231H38.9654C38.8765 17.4824 38.7876 17.5565 38.7135 17.6305L35.6615 20.6825C35.0689 21.2752 34.58 22.0159 34.0614 22.6678C33.7799 23.0234 33.8244 23.5568 34.1947 23.8383C34.5503 24.1198 35.0837 24.0753 35.3652 23.7049L36.3282 22.5197L38.7876 24.9791L33.9133 30.9201C33.0539 31.9572 31.928 32.698 30.6242 33.0536L17.468 36.8463C16.4457 37.1723 16.9642 38.7576 17.9717 38.4316L20.8607 37.4982V44.4764H19.7051C19.2458 44.4764 18.8754 44.8468 18.8754 45.306C18.8754 45.7653 19.2458 46.1357 19.7051 46.1357H24.8017C25.261 46.1357 25.6313 45.7653 25.6313 45.306C25.6313 44.8468 25.261 44.4764 24.8017 44.4764H22.5349V37.1871H53.6624C55.4699 37.1871 56.9367 35.7204 56.9367 33.9129V6.35588C56.8922 4.53357 55.4255 3.06682 53.618 3.06682ZM46.225 1.65934H49.5881V3.05201H46.225V1.65934ZM12.001 1.65934H15.3642V3.05201H12.001V1.65934ZM39.4691 19.1862L39.1728 23.0382L37.3949 21.2604L39.4691 19.1862ZM42.8767 35.5129V33.1869H50.1659V35.5129H42.8767Z" fill="#00093C"/>
<path d="M15.6749 44.4763H4.97803V40.0465C4.97803 37.2315 5.62992 34.4314 6.85961 31.9127C7.54113 30.5349 8.96342 29.6459 10.5042 29.6459H24.5494C27.4829 29.6459 30.3423 28.6089 32.5943 26.7273C32.9498 26.431 32.9943 25.9124 32.698 25.5568C32.4017 25.2013 31.8831 25.1568 31.5275 25.4531C29.5719 27.0829 27.0977 27.9866 24.5642 27.9866H18.5195C19.4529 27.0088 20.0307 25.6902 20.0307 24.2383V21.1714C22.1789 21.0233 23.8679 19.2454 23.8679 17.0675C23.8679 14.8007 22.0159 12.9488 19.7492 12.9488C18.3565 12.9192 17.0379 13.2451 16.0749 14.297C15.6008 14.8156 14.9193 15.1119 14.223 15.1119H11.9265C10.0153 15.1119 8.4597 16.6675 8.4597 18.5787V24.8309C8.4597 25.542 8.62267 26.2384 9.05232 26.8162C9.24492 27.0828 9.48197 27.3051 9.74865 27.4829C10.045 27.6755 10.4598 27.7496 10.6968 27.9866C8.4597 27.9422 6.34107 29.1718 5.36324 31.1868C4.01502 33.9425 3.30387 36.9945 3.30387 40.0613V44.4912H0.829673C0.37039 44.4912 0 44.8615 0 45.3208C0 45.7801 0.37039 46.1505 0.829673 46.1505H15.6749C16.1342 46.1505 16.5046 45.7801 16.5046 45.3208C16.5194 44.8467 16.1342 44.4763 15.6749 44.4763ZM14.3711 27.957C13.9118 27.9273 13.4525 27.8088 13.0377 27.6162C13.2303 27.5125 13.4229 27.394 13.5859 27.2606C14.2822 26.6828 14.6674 25.8383 14.6674 24.8753V21.1714H18.3565V24.2234C18.3565 26.2828 16.6823 27.9718 14.6082 27.9718C14.5193 27.9718 14.4452 27.9718 14.3711 27.957ZM10.1339 24.8161V18.5639C10.1339 17.5712 10.9487 16.7564 11.9414 16.7564H14.223C15.3934 16.7564 16.5046 16.2675 17.3046 15.4082C17.9565 14.697 18.8454 14.5637 19.764 14.5933C21.1122 14.5933 22.2085 15.6897 22.2085 17.0379C22.2085 18.3861 21.1122 19.4825 19.764 19.4825H13.8377C13.3785 19.4825 13.0081 19.8528 13.0081 20.3121V24.8605C13.0081 25.8383 12.1488 26.4458 11.2154 26.268C10.4746 26.1495 10.1339 25.542 10.1339 24.8161Z" fill="#00093C"/>
<path d="M28.5352 12.7266H33.0687C33.528 12.7266 33.8984 12.3562 33.8984 11.8969V8.83011C33.8984 8.37083 33.528 8.00044 33.0687 8.00044H28.5352C28.0759 8.00044 27.7055 8.37083 27.7055 8.83011V11.8969C27.6907 12.3562 28.0611 12.7266 28.5352 12.7266ZM29.3649 9.65979H32.2391V11.0525H29.3649V9.65979Z" fill="#00093C"/>
<path d="M27.6895 18.1047C27.6895 18.5639 28.0598 18.9343 28.5191 18.9343H33.0527C33.512 18.9343 33.8824 18.5639 33.8824 18.1047V15.0378C33.8824 14.5786 33.512 14.2082 33.0527 14.2082H28.5191C28.0598 14.2082 27.6895 14.5786 27.6895 15.0378V18.1047ZM29.3636 15.8823H32.2378V17.275H29.3636V15.8823Z" fill="#00093C"/>
<path d="M36.2086 11.1858H50.9945C51.4538 11.1858 51.8242 10.8154 51.8242 10.3561C51.8242 9.89682 51.4538 9.52643 50.9945 9.52643H36.2086C35.7493 9.52643 35.3789 9.89682 35.3789 10.3561C35.3789 10.8154 35.7493 11.1858 36.2086 11.1858Z" fill="#00093C"/>
</svg>
