<svg width="16" height="17" viewBox="0 0 16 17" fill="none" xmlns="http://www.w3.org/2000/svg">
<path d="M5.02734 5.85938C5.82422 5.0625 6.78516 4.66406 7.91016 4.66406C9.03516 4.66406 9.98438 5.0625 10.7578 5.85938C11.5547 6.63281 11.9531 7.58203 11.9531 8.70703C11.9531 9.83203 11.5547 10.793 10.7578 11.5898C9.98438 12.3633 9.03516 12.75 7.91016 12.75C6.78516 12.75 5.82422 12.3633 5.02734 11.5898C4.25391 10.793 3.86719 9.83203 3.86719 8.70703C3.86719 7.58203 4.25391 6.63281 5.02734 5.85938ZM6.04688 10.5703C6.5625 11.0859 7.18359 11.3438 7.91016 11.3438C8.63672 11.3438 9.25781 11.0859 9.77344 10.5703C10.2891 10.0547 10.5469 9.43359 10.5469 8.70703C10.5469 7.98047 10.2891 7.35938 9.77344 6.84375C9.25781 6.32812 8.63672 6.07031 7.91016 6.07031C7.18359 6.07031 6.5625 6.32812 6.04688 6.84375C5.53125 7.35938 5.27344 7.98047 5.27344 8.70703C5.27344 9.43359 5.53125 10.0547 6.04688 10.5703ZM12.7617 3.85547C12.9492 4.01953 13.043 4.23047 13.043 4.48828C13.043 4.74609 12.9492 4.96875 12.7617 5.15625C12.5977 5.34375 12.3867 5.4375 12.1289 5.4375C11.8711 5.4375 11.6484 5.34375 11.4609 5.15625C11.2734 4.96875 11.1797 4.74609 11.1797 4.48828C11.1797 4.23047 11.2734 4.01953 11.4609 3.85547C11.6484 3.66797 11.8711 3.57422 12.1289 3.57422C12.3867 3.57422 12.5977 3.66797 12.7617 3.85547ZM15.75 5.47266C15.7734 6.10547 15.7852 7.18359 15.7852 8.70703C15.7852 10.2305 15.7734 11.3086 15.75 11.9414C15.6797 13.3711 15.2461 14.4844 14.4492 15.2812C13.6758 16.0547 12.5742 16.4648 11.1445 16.5117C10.5117 16.5586 9.43359 16.582 7.91016 16.582C6.38672 16.582 5.30859 16.5586 4.67578 16.5117C3.24609 16.4414 2.14453 16.0195 1.37109 15.2461C1.06641 14.9648 0.820312 14.6367 0.632812 14.2617C0.445312 13.8867 0.304688 13.5234 0.210938 13.1719C0.140625 12.8203 0.105469 12.4102 0.105469 11.9414C0.0585937 11.3086 0.0351562 10.2305 0.0351562 8.70703C0.0351562 7.18359 0.0585937 6.09375 0.105469 5.4375C0.175781 4.03125 0.597656 2.94141 1.37109 2.16797C2.14453 1.37109 3.24609 0.9375 4.67578 0.867188C5.30859 0.84375 6.38672 0.832031 7.91016 0.832031C9.43359 0.832031 10.5117 0.84375 11.1445 0.867188C12.5742 0.9375 13.6758 1.37109 14.4492 2.16797C15.2461 2.94141 15.6797 4.04297 15.75 5.47266ZM14.0625 13.3477C14.1328 13.1602 14.1914 12.9258 14.2383 12.6445C14.2852 12.3398 14.3203 11.9883 14.3438 11.5898C14.3672 11.168 14.3789 10.8281 14.3789 10.5703C14.3789 10.3125 14.3789 9.94922 14.3789 9.48047C14.3789 9.01172 14.3789 8.75391 14.3789 8.70703C14.3789 8.63672 14.3789 8.37891 14.3789 7.93359C14.3789 7.46484 14.3789 7.10156 14.3789 6.84375C14.3789 6.58594 14.3672 6.25781 14.3438 5.85938C14.3203 5.4375 14.2852 5.08594 14.2383 4.80469C14.1914 4.5 14.1328 4.25391 14.0625 4.06641C13.7812 3.33984 13.2773 2.83594 12.5508 2.55469C12.3633 2.48438 12.1172 2.42578 11.8125 2.37891C11.5312 2.33203 11.1797 2.29688 10.7578 2.27344C10.3594 2.25 10.0312 2.23828 9.77344 2.23828C9.53906 2.23828 9.17578 2.23828 8.68359 2.23828C8.21484 2.23828 7.95703 2.23828 7.91016 2.23828C7.86328 2.23828 7.60547 2.23828 7.13672 2.23828C6.66797 2.23828 6.30469 2.23828 6.04688 2.23828C5.78906 2.23828 5.44922 2.25 5.02734 2.27344C4.62891 2.29688 4.27734 2.33203 3.97266 2.37891C3.69141 2.42578 3.45703 2.48438 3.26953 2.55469C2.54297 2.83594 2.03906 3.33984 1.75781 4.06641C1.6875 4.25391 1.62891 4.5 1.58203 4.80469C1.53516 5.08594 1.5 5.4375 1.47656 5.85938C1.45312 6.25781 1.44141 6.58594 1.44141 6.84375C1.44141 7.07812 1.44141 7.44141 1.44141 7.93359C1.44141 8.40234 1.44141 8.66016 1.44141 8.70703C1.44141 8.80078 1.44141 9.02344 1.44141 9.375C1.44141 9.70312 1.44141 9.98438 1.44141 10.2188C1.44141 10.4297 1.44141 10.7109 1.44141 11.0625C1.46484 11.4141 1.48828 11.7188 1.51172 11.9766C1.53516 12.2109 1.57031 12.457 1.61719 12.7148C1.66406 12.9727 1.71094 13.1836 1.75781 13.3477C2.0625 14.0742 2.56641 14.5781 3.26953 14.8594C3.45703 14.9297 3.69141 14.9883 3.97266 15.0352C4.27734 15.082 4.62891 15.1172 5.02734 15.1406C5.44922 15.1641 5.77734 15.1758 6.01172 15.1758C6.26953 15.1758 6.63281 15.1758 7.10156 15.1758C7.59375 15.1758 7.86328 15.1758 7.91016 15.1758C7.98047 15.1758 8.23828 15.1758 8.68359 15.1758C9.15234 15.1758 9.51562 15.1758 9.77344 15.1758C10.0312 15.1758 10.3594 15.1641 10.7578 15.1406C11.1797 15.1172 11.5312 15.082 11.8125 15.0352C12.1172 14.9883 12.3633 14.9297 12.5508 14.8594C13.2773 14.5547 13.7812 14.0508 14.0625 13.3477Z" fill="white"/>
</svg>
