<svg width="38" height="84" viewBox="0 0 38 84" fill="none" xmlns="http://www.w3.org/2000/svg">
<path opacity="0.2" d="M37.08 -5.72205e-06H38.08V-1.00001H37.08V-5.72205e-06ZM37.08 84V85H38.08V84H37.08ZM17.64 84H16.64V85H17.64V84ZM17.64 15.6H18.64V14.6H17.64V15.6ZM0.84 15.6H-0.16V16.6H0.84V15.6ZM0.84 -5.72205e-06V-1.00001H-0.16V-5.72205e-06H0.84ZM36.08 -5.72205e-06V84H38.08V-5.72205e-06H36.08ZM37.08 83H17.64V85H37.08V83ZM18.64 84V15.6H16.64V84H18.64ZM17.64 14.6H0.84V16.6H17.64V14.6ZM1.84 15.6V-5.72205e-06H-0.16V15.6H1.84ZM0.84 0.999992H37.08V-1.00001H0.84V0.999992Z" fill="#27AAE1"/>
</svg>
