<svg width="68" height="86" viewBox="0 0 68 86" fill="none" xmlns="http://www.w3.org/2000/svg">
<path opacity="0.2" d="M67.5494 70.16H68.5494V69.16H67.5494V70.16ZM67.5494 86V87H68.5494V86H67.5494ZM4.06938 86H3.06938V87H4.06938V86ZM4.06938 73.4L3.38275 72.673L3.06938 72.969V73.4H4.06938ZM36.4694 42.8L37.156 43.527L37.1595 43.5237L36.4694 42.8ZM43.4294 34.4L44.3177 34.8595L44.3238 34.8472L43.4294 34.4ZM41.7494 19.64L41.1146 20.4127L41.1296 20.425L41.145 20.4367L41.7494 19.64ZM21.8294 19.04L22.2469 19.9487L22.2569 19.9441L22.2668 19.9392L21.8294 19.04ZM14.3894 25.28L13.8479 26.1207L14.6492 26.6368L15.2031 25.8612L14.3894 25.28ZM0.229375 16.16L-0.600576 15.6022L-1.16944 16.4485L-0.312102 17.0007L0.229375 16.16ZM13.7894 4.75999L14.2164 5.6643L14.2266 5.65936L13.7894 4.75999ZM49.9094 3.67999L49.5003 4.5925L49.5097 4.59672L49.5192 4.60075L49.9094 3.67999ZM60.8294 12.32L60.0028 12.8828L60.0097 12.8929L60.0168 12.9029L60.8294 12.32ZM61.9094 38.24L62.8109 38.6727L61.9094 38.24ZM50.7494 51.92L50.0693 51.1868L50.0629 51.1929L50.7494 51.92ZM31.4294 70.16L30.7429 69.4329L28.9135 71.16H31.4294V70.16ZM66.5494 70.16V86H68.5494V70.16H66.5494ZM67.5494 85H4.06938V87H67.5494V85ZM5.06938 86V73.4H3.06938V86H5.06938ZM4.756 74.127L37.156 43.527L35.7828 42.073L3.38275 72.673L4.756 74.127ZM37.1595 43.5237C40.6252 40.2192 43.0408 37.3278 44.3176 34.8594L42.5412 33.9406C41.4179 36.1122 39.1935 38.8208 35.7793 42.0763L37.1595 43.5237ZM44.3238 34.8472C45.5824 32.3301 46.2294 29.8179 46.2294 27.32H44.2294C44.2294 29.4621 43.6764 31.6699 42.535 33.9528L44.3238 34.8472ZM46.2294 27.32C46.2294 23.7018 44.9635 20.8231 42.3538 18.8433L41.145 20.4367C43.1752 21.9769 44.2294 24.2182 44.2294 27.32H46.2294ZM42.3841 18.8673C39.8931 16.8211 36.3062 15.88 31.7894 15.88V17.88C36.0726 17.88 39.1256 18.7789 41.1146 20.4127L42.3841 18.8673ZM31.7894 15.88C27.9758 15.88 24.5036 16.627 21.3919 18.1408L22.2668 19.9392C25.0752 18.573 28.2429 17.88 31.7894 17.88V15.88ZM21.4119 18.1313C18.2845 19.5682 15.671 21.7652 13.5756 24.6988L15.2031 25.8612C17.1077 23.1948 19.4542 21.2318 22.2469 19.9487L21.4119 18.1313ZM14.9309 24.4393L0.770852 15.3193L-0.312102 17.0007L13.8479 26.1207L14.9309 24.4393ZM1.05933 16.7178C4.23037 11.9999 8.60542 8.31387 14.2164 5.66424L13.3624 3.85575C7.45333 6.64613 2.78838 10.5601 -0.600576 15.6022L1.05933 16.7178ZM14.2266 5.65936C19.83 2.9355 26.2764 1.56 33.5894 1.56V-0.440002C26.0223 -0.440002 19.2688 0.984495 13.3522 3.86063L14.2266 5.65936ZM33.5894 1.56C39.7196 1.56 45.0147 2.58173 49.5003 4.5925L50.3184 2.76748C45.524 0.618269 39.9391 -0.440002 33.5894 -0.440002V1.56ZM49.5192 4.60075C54.0855 6.53562 57.5642 9.30111 60.0028 12.8828L61.656 11.7572C58.9746 7.81888 55.1732 4.82437 50.2995 2.75924L49.5192 4.60075ZM60.0168 12.9029C62.5213 16.394 63.7894 20.5444 63.7894 25.4H65.7894C65.7894 20.1756 64.4175 15.606 61.6419 11.7371L60.0168 12.9029ZM63.7894 25.4C63.7894 29.8145 62.8612 33.9461 61.0079 37.8073L62.8109 38.6727C64.7976 34.5339 65.7894 30.1055 65.7894 25.4H63.7894ZM61.0079 37.8073C59.1672 41.6419 55.5524 46.1011 50.0693 51.1868L51.4294 52.6532C56.9864 47.4989 60.8115 42.8381 62.8109 38.6727L61.0079 37.8073ZM50.0629 51.1929L30.7429 69.4329L32.1159 70.8871L51.4359 52.6471L50.0629 51.1929ZM31.4294 71.16H67.5494V69.16H31.4294V71.16Z" fill="#27AAE1"/>
</svg>
