<svg width="68" height="86" viewBox="0 0 68 86" fill="none" xmlns="http://www.w3.org/2000/svg">
<path opacity="0.2" d="M44.4122 34.2L43.6606 33.5403L42.4702 34.8966L44.2513 35.187L44.4122 34.2ZM61.3322 42.48L60.5916 43.152L60.5979 43.1589L61.3322 42.48ZM63.3722 71.88L64.2193 72.4115L64.2239 72.4041L63.3722 71.88ZM51.6122 81.72L51.187 80.8149L51.1817 80.8174L51.6122 81.72ZM14.8922 83.16L14.621 84.1225L14.629 84.1248L14.637 84.1269L14.8922 83.16ZM0.372187 76.44L-0.519345 75.987L-0.907436 76.7509L-0.212117 77.2515L0.372187 76.44ZM7.93219 61.56L8.53219 60.76L7.57986 60.0458L7.04066 61.107L7.93219 61.56ZM18.9722 67.2L18.6614 68.1505L18.6723 68.154L18.6832 68.1573L18.9722 67.2ZM43.4522 66.36L44.0014 67.1957L44.0096 67.1903L44.0177 67.1847L43.4522 66.36ZM23.0522 48H22.0522V49H23.0522V48ZM23.0522 35.16L22.3028 34.4979L22.0522 34.7815V35.16H23.0522ZM40.3322 15.6L41.0816 16.2621L42.55 14.6H40.3322V15.6ZM4.57219 15.6H3.57219V16.6H4.57219V15.6ZM4.57219 -5.72205e-06V-1.00001H3.57219V-5.72205e-06H4.57219ZM63.3722 -5.72205e-06H64.3722V-1.00001H63.3722V-5.72205e-06ZM63.3722 12.6L64.1237 13.2597L64.3722 12.9766V12.6H63.3722ZM44.2513 35.187C51.4511 36.3608 56.8617 39.0414 60.5916 43.152L62.0728 41.808C57.9627 37.2786 52.0933 34.4391 44.5731 33.213L44.2513 35.187ZM60.5979 43.1589C64.3303 47.1959 66.2122 52.2258 66.2122 58.32H68.2122C68.2122 51.7742 66.1741 46.2441 62.0665 41.8011L60.5979 43.1589ZM66.2122 58.32C66.2122 63.0148 64.9836 67.3534 62.5205 71.3559L64.2239 72.4041C66.8807 68.0866 68.2122 63.3852 68.2122 58.32H66.2122ZM62.5251 71.3485C60.0868 75.2347 56.3304 78.399 51.1871 80.8149L52.0373 82.6251C57.4539 80.081 61.5376 76.6853 64.2193 72.4115L62.5251 71.3485ZM51.1817 80.8174C46.1519 83.2162 39.9087 84.44 32.4122 84.44V86.44C40.1157 86.44 46.6725 85.1838 52.0427 82.6226L51.1817 80.8174ZM32.4122 84.44C26.5789 84.44 20.8246 83.6913 15.1473 82.1931L14.637 84.1269C20.4798 85.6687 26.4055 86.44 32.4122 86.44V84.44ZM15.1633 82.1975C9.57416 80.623 4.84509 78.4283 0.956492 75.6285L-0.212117 77.2515C3.89928 80.2117 8.85022 82.497 14.621 84.1225L15.1633 82.1975ZM1.26372 76.893L8.82372 62.013L7.04066 61.107L-0.519345 75.987L1.26372 76.893ZM7.33219 62.36C10.6276 64.8315 14.4072 66.7597 18.6614 68.1505L19.2829 66.2495C15.2172 64.9203 11.6368 63.0885 8.53219 60.76L7.33219 62.36ZM18.6832 68.1573C23.0163 69.4654 27.4336 70.12 31.9322 70.12V68.12C27.6307 68.12 23.4081 67.4946 19.2612 66.2427L18.6832 68.1573ZM31.9322 70.12C36.9229 70.12 40.9797 69.1814 44.0014 67.1957L42.903 65.5243C40.3247 67.2186 36.7014 68.12 31.9322 68.12V70.12ZM44.0177 67.1847C47.0939 65.0753 48.6522 62.0845 48.6522 58.32H46.6522C46.6522 61.4355 45.4104 63.8047 42.8867 65.5353L44.0177 67.1847ZM48.6522 58.32C48.6522 54.5821 47.2036 51.6693 44.271 49.744C41.4117 47.867 37.2498 47 31.9322 47V49C37.0946 49 40.7927 49.853 43.1734 51.416C45.4807 52.9307 46.6522 55.1779 46.6522 58.32H48.6522ZM31.9322 47H23.0522V49H31.9322V47ZM24.0522 48V35.16H22.0522V48H24.0522ZM23.8016 35.8221L41.0816 16.2621L39.5828 14.9379L22.3028 34.4979L23.8016 35.8221ZM40.3322 14.6H4.57219V16.6H40.3322V14.6ZM5.57219 15.6V-5.72205e-06H3.57219V15.6H5.57219ZM4.57219 0.999992H63.3722V-1.00001H4.57219V0.999992ZM62.3722 -5.72205e-06V12.6H64.3722V-5.72205e-06H62.3722ZM62.6207 11.9403L43.6606 33.5403L45.1637 34.8597L64.1237 13.2597L62.6207 11.9403Z" fill="#27AAE1"/>
</svg>
