<svg width="27" height="43" viewBox="0 0 27 43" fill="none" xmlns="http://www.w3.org/2000/svg">
<rect x="1" y="1.40625" width="24.0406" height="40" rx="3" stroke="#00093C" stroke-width="2"/>
<path d="M12.0342 37.4102H14.0342" stroke="#00093C" stroke-width="2" stroke-linecap="round"/>
<path d="M15.0415 29.4711L21.0297 29.4709" stroke="#00093C" stroke-width="2" stroke-linecap="round"/>
<path d="M18.0355 26.4769L18.0356 32.4651" stroke="#00093C" stroke-width="2" stroke-linecap="round"/>
<mask id="path-5-inside-1_64_7723" fill="white">
<rect x="4.04736" y="5.38672" width="7.90212" height="7.90212" rx="1"/>
</mask>
<rect x="4.04736" y="5.38672" width="7.90212" height="7.90212" rx="1" stroke="#00093C" stroke-width="4" mask="url(#path-5-inside-1_64_7723)"/>
<mask id="path-6-inside-2_64_7723" fill="white">
<rect x="14.0342" y="5.38672" width="8.00441" height="8.00441" rx="1"/>
</mask>
<rect x="14.0342" y="5.38672" width="8.00441" height="8.00441" rx="1" stroke="#00093C" stroke-width="4" mask="url(#path-6-inside-2_64_7723)"/>
<mask id="path-7-inside-3_64_7723" fill="white">
<rect x="4.04736" y="15.4534" width="7.90212" height="7.90212" rx="1"/>
</mask>
<rect x="4.04736" y="15.4534" width="7.90212" height="7.90212" rx="1" stroke="#00093C" stroke-width="4" mask="url(#path-7-inside-3_64_7723)"/>
<mask id="path-8-inside-4_64_7723" fill="white">
<rect x="14.0342" y="15.4534" width="8.00441" height="8.00441" rx="1"/>
</mask>
<rect x="14.0342" y="15.4534" width="8.00441" height="8.00441" rx="1" stroke="#00093C" stroke-width="4" mask="url(#path-8-inside-4_64_7723)"/>
<mask id="path-9-inside-5_64_7723" fill="white">
<rect x="4.04736" y="25.5198" width="7.90212" height="7.90212" rx="1"/>
</mask>
<rect x="4.04736" y="25.5198" width="7.90212" height="7.90212" rx="1" stroke="#00093C" stroke-width="4" mask="url(#path-9-inside-5_64_7723)"/>
</svg>
